<?xml version="1.0" standalone="no"?>
<!DOCTYPE svg PUBLIC "-//W3C//DTD SVG 1.1//EN" "http://www.w3.org/Graphics/SVG/1.1/DTD/svg11.dtd" >
<!--
2013-9-30: Created.
-->
<svg>
<metadata>
Created by iconfont
</metadata>
<defs>

<font id="iconfont" horiz-adv-x="1024" >
  <font-face
    font-family="iconfont"
    font-weight="500"
    font-stretch="normal"
    units-per-em="1024"
    ascent="896"
    descent="-128"
  />
    <missing-glyph />
    
    <glyph glyph-name="cuowu" unicode="&#59130;" d="M512-128C229.248-128 0 101.248 0 384S229.248 896 512 896s512-229.248 512-512-229.248-512-512-512z m0 938.666667C276.352 810.666667 85.333333 619.648 85.333333 384s191.018667-426.666667 426.666667-426.666667 426.666667 191.018667 426.666667 426.666667S747.648 810.666667 512 810.666667z m198.698667-625.365334a42.666667 42.666667 0 0 0-60.330667 0L512 323.669333l-138.368-138.368a42.666667 42.666667 0 0 0-60.330667 60.330667L451.669333 384 313.301333 522.368a42.666667 42.666667 0 0 0 60.330667 60.330667L512 444.330667l138.368 138.368a42.624 42.624 0 1 0 60.330667-60.330667L572.330667 384l138.368-138.368a42.666667 42.666667 0 0 0 0-60.330667z"  horiz-adv-x="1024" />

    
    <glyph glyph-name="anquan1" unicode="&#59189;" d="M890.88 737.28C752.64 744.96 616.96 801.28 563.2 870.4c-12.8 15.36-30.72 25.6-51.2 25.6s-38.4-10.24-51.2-25.6c-53.76-71.68-189.44-125.44-327.68-133.12h-23.04v-432.64c0-138.24 74.24-268.8 194.56-337.92l125.44-71.68c25.6-15.36 53.76-23.04 81.92-23.04s56.32 7.68 81.92 23.04l125.44 71.68c120.32 69.12 194.56 199.68 194.56 337.92V737.28h-23.04z m-28.16-432.64c0-120.32-64-232.96-168.96-294.4l-125.44-71.68c-35.84-20.48-79.36-20.48-112.64 0l-125.44 71.68c-104.96 61.44-168.96 174.08-168.96 294.4v384c145.92 12.8 281.6 71.68 340.48 151.04 5.12 5.12 7.68 5.12 10.24 5.12 2.56 0 5.12 0 10.24-5.12 61.44-79.36 197.12-138.24 340.48-151.04v-384zM296.96 427.52c-10.24 10.24-25.6 10.24-35.84 0-10.24-10.24-10.24-25.6 0-35.84l194.56-186.88c5.12-5.12 10.24-7.68 17.92-7.68h2.56c7.68 0 12.8 2.56 17.92 10.24l271.36 327.68c10.24 10.24 7.68 28.16-2.56 35.84-10.24 10.24-28.16 7.68-35.84-2.56l-253.44-304.64-176.64 163.84z"  horiz-adv-x="1024" />

    
    <glyph glyph-name="caozuorizhi" unicode="&#59188;" d="M905.984 551.296l-225.728 225.152L770.816 866.816l225.664-225.152z m-452.736-451.52L227.52 324.928l407.488 406.4 225.664-225.216z m181.504 451.136L408.384 325.184l45.12-44.8 226.368 225.664z m-226.816-496.32l-206.784 25.6-19.2 199.488zM128 0h768V384h128v-512H0V896h576v-128H128v-768z"  horiz-adv-x="1024" />

    
    <glyph glyph-name="anquan" unicode="&#59183;" d="M165.101068 654.059179c0 41.997991 0.041274 83.996988-0.041274 125.994978-0.013087 6.892788 1.731502 12.959087 6.751852 17.800246 5.867981 5.65859 12.923852 8.233696 20.836415 5.842814 21.678006-6.551521 43.409366-4.858273 65.193074-1.064069 19.12706 3.332135 36.951467 10.003452 53.935289 19.593156 36.408862 20.560583 74.395204 37.555479 115.0392 48.089456 23.471923 6.083412 47.288133 9.540376 71.573459 9.234343 16.688863-0.209391 33.414974 0.02114 50.056523-1.033868 34.222337-2.170418 66.982964-10.978932 98.772138-23.587692 23.915872-9.485008 46.937805-20.854536 68.459775-34.908898 15.236213-9.949091 31.885816-15.050983 49.496805-17.920042 17.307976-2.820738 34.679373-4.189833 52.140366-1.489897 3.789171 0.586899 7.561229 1.451643 11.244698 2.519738 16.096931 4.672036 30.044585-5.635436 30.108006-22.449128 0.065435-17.468039 0.016107-34.937085 0.0151-52.406131 0-58.057674 0.276839-116.116355-0.069461-174.172016-0.497304-83.420156-20.017978-162.510549-57.012733-237.061789-61.743157-124.423539-154.694629-218.422973-278.11148-282.276146-8.485368-4.389157-16.420078-4.466672-24.895379-0.025167-143.877773 75.35961-244.476042 188.847504-300.434773 341.46131-16.337529 44.554976-26.363129 90.712599-29.513054 138.0561-1.915726 28.798306-1.677141 57.747614-2.136191 86.633502-0.281872 17.718704-0.052348 35.445462-0.052348 53.1692C166.005073 654.059179 165.552064 654.059179 165.101068 654.059179zM510.502553 455.726667c0 116.146556 0 231.804868 0 347.344391-0.46207 0.238585-0.678507 0.439922-0.905012 0.454016-1.280506 0.076508-2.565039 0.146976-3.846552 0.147983-45.083487 0.026174-88.295543-8.532682-128.741221-28.910048-35.241105-17.754945-71.116423-33.740134-109.617181-43.201989-8.662545-2.129144-17.137846-5.018337-25.830591-7.59747 0-1.778817 0.008053-3.183145-0.001007-4.585461-0.16107-23.247432-0.447976-46.494863-0.461063-69.742295-0.028187-50.71691-1.163731-101.487174 5.814626-151.929258 2.017401-14.58388 4.475732-29.108365 6.78608-44.007339C339.637505 454.375692 424.97842 455.050173 510.502553 455.726667zM511.404544 455.769954c0.621126-115.703613 1.239232-230.897843 1.860358-346.427299 1.748616 0.745955 3.048249 1.267419 4.319696 1.848278 29.47178 13.490617 55.328545 32.309631 79.262537 53.926229 31.201268 28.17718 58.274112 60.054942 83.203718 93.775949 18.532108 25.066516 37.458837 49.928674 51.350116 78.041425 6.692458 13.546992 14.060403 26.929894 19.029411 41.119152 8.126987 23.212197 14.697636 46.98512 18.648884 71.360041 0.970447 5.988783 0.578845 6.354211-5.425038 6.354211-82.443669 0.001007-164.886332 0.001007-247.330001 0.001007C514.802114 455.769954 513.276983 455.769954 511.404544 455.769954z"  horiz-adv-x="1024" />

    
    <glyph glyph-name="icon-test" unicode="&#59184;" d="M465.821 77.907H218.733c-49.884 0-90.468 40.581-90.468 90.466V628.327c0 49.884 40.584 90.465 90.468 90.465 10.629 0 19.246-8.614 19.246-19.243s-8.616-19.243-19.246-19.243c-28.66 0-51.977-23.316-51.977-51.979v-459.955c0-28.663 23.316-51.979 51.977-51.979h247.088c10.629 0 19.246-8.614 19.246-19.243s-8.616-19.243-19.246-19.243zM801.37 77.907H697.642c-10.629 0-19.246 8.614-19.246 19.243s8.616 19.243 19.246 19.243H801.37c28.66 0 51.977 23.317 51.977 51.979V628.327c0 28.663-23.317 51.979-51.977 51.979H421.503c-10.629 0-19.246 8.614-19.246 19.243s8.616 19.243 19.246 19.243H801.37c49.884 0 90.468-40.581 90.468-90.465v-459.955c0-49.884-40.584-90.465-90.468-90.465zM528.128 414.968c-10.629 0-19.246 8.614-19.246 19.243V557.8c0 18.134-14.753 32.89-32.89 32.89s-32.893-14.756-32.893-32.89v-35.728c0-10.629-8.616-19.243-19.246-19.243s-19.246 8.614-19.246 19.243V557.8c0 39.356 32.023 71.376 71.384 71.376 39.359 0 71.382-32.02 71.382-71.376v-123.589c0-10.63-8.616-19.243-19.245-19.243zM371.216 456.35c-39.361 0-71.384 32.02-71.384 71.382V695.476c0 10.629 8.616 19.243 19.246 19.243s19.246-8.614 19.246-19.243v-167.745c0-18.14 14.756-32.896 32.893-32.896s32.89 14.756 32.89 32.896c0 10.629 8.616 19.243 19.246 19.243 10.629 0 19.246-8.614 19.246-19.243-0.001-39.361-32.024-71.381-71.383-71.381zM694.39 272.958H469.075c-10.629 0-19.246 8.614-19.246 19.243s8.616 19.243 19.246 19.243H694.39c10.629 0 19.246-8.614 19.246-19.243s-8.616-19.243-19.246-19.243zM581.733 272.958c-10.629 0-19.246 8.614-19.246 19.243V417.593c0 10.629 8.616 19.243 19.246 19.243s19.246-8.614 19.246-19.243V292.2c0-10.629-8.617-19.242-19.246-19.242zM581.733-9.471c-74.524 0-135.157 60.63-135.157 135.157V315.4c0 74.522 60.633 135.152 135.157 135.152S716.89 389.922 716.89 315.4v-189.714c0-74.527-60.633-135.157-135.157-135.157z m0 421.537c-53.303 0-96.666-43.366-96.666-96.666v-189.714c0-53.305 43.363-96.671 96.666-96.671s96.666 43.366 96.666 96.671V315.4c0 53.301-43.363 96.666-96.666 96.666z"  horiz-adv-x="1024" />

    
    <glyph glyph-name="xiaoxi1" unicode="&#59185;" d="M910.222222 782.222222a56.888889 56.888889 0 0 0 56.888889-56.888889v-568.888889a56.888889 56.888889 0 0 0-56.888889-56.888888h-260.892444l-16.668445-16.497778-80.440889-80.782222a57.287111 57.287111 0 0 0-80.440888 0l-80.440889 80.782222-16.668445 16.497778H113.777778a56.888889 56.888889 0 0 0-56.888889 56.888888V725.333333a56.888889 56.888889 0 0 0 56.888889 56.888889h796.444444m0 56.888889H113.777778a113.777778 113.777778 0 0 1-113.777778-113.777778v-568.888889a113.777778 113.777778 0 0 1 113.777778-113.777777h237.283555l80.440889-80.213334a113.208889 113.208889 0 0 1 160.881778 0L672.824889 42.666667H910.222222a113.777778 113.777778 0 0 1 113.777778 113.777777V725.333333a113.777778 113.777778 0 0 1-113.777778 113.777778zM341.333333 440.888889a56.888889 56.888889 0 1 0-56.888889 56.888889 56.888889 56.888889 0 0 0 56.888889-56.888889z m227.555556 0a56.888889 56.888889 0 1 0-56.888889 56.888889 56.888889 56.888889 0 0 0 56.888889-56.888889z m227.555555 0a56.888889 56.888889 0 1 0-56.888888 56.888889 56.888889 56.888889 0 0 0 56.888888-56.888889z"  horiz-adv-x="1024" />

    
    <glyph glyph-name="jiekou" unicode="&#59186;" d="M262.4-96c-25.6 0-51.2 25.6-51.2 57.6v44.8H38.4c-25.6 0-38.4 19.2-38.4 38.4s19.2 38.4 38.4 38.4h172.8V128c0 32 19.2 57.6 51.2 57.6h147.2c25.6 0 51.2-25.6 51.2-57.6v-44.8h524.8c19.2 0 38.4-19.2 38.4-38.4s-19.2-38.4-38.4-38.4H460.8v-44.8c0-32-19.2-57.6-51.2-57.6H262.4z m128 76.8v128H281.6v-128h108.8z m224 262.4c-25.6 0-51.2 25.6-51.2 57.6v44.8H38.4C19.2 345.6 0 364.8 0 384s19.2 38.4 38.4 38.4h524.8v44.8c0 32 19.2 57.6 51.2 57.6h147.2c25.6 0 51.2-25.6 51.2-57.6v-44.8h172.8c19.2 0 38.4-19.2 38.4-38.4s-19.2-38.4-38.4-38.4h-172.8v-44.8c0-32-19.2-57.6-51.2-57.6H614.4z m128 76.8V448H633.6v-128h108.8zM262.4 582.4c-25.6 0-51.2 25.6-51.2 57.6v44.8H38.4c-19.2 0-38.4 12.8-38.4 38.4 0 19.2 19.2 38.4 38.4 38.4h172.8v44.8c0 32 19.2 57.6 51.2 57.6h147.2c25.6 0 51.2-25.6 51.2-57.6v-44.8h524.8c19.2 0 38.4-19.2 38.4-38.4s-19.2-38.4-38.4-38.4H460.8V640c0-32-19.2-57.6-51.2-57.6H262.4z m128 76.8v128H281.6v-128h108.8z"  horiz-adv-x="1024" />

    
    <glyph glyph-name="xiaoxi11" unicode="&#59187;" d="M904 752.2c14.8 0 28.9-5.9 39.5-16.5C954.1 725 960 711 960 696.2V231c0-14.8-5.9-28.9-16.5-39.5-10.6-10.6-24.7-16.5-39.5-16.5H577.2c-12 0-23.7-3.2-34.1-9.2l-2.4-1.4-2.3-1.6-164.3-115.2V107c0 37.5-30.5 68-68 68H120c-14.8 0-28.9 5.9-39.5 16.5C69.9 202.20000000000005 64 216.20000000000005 64 231V696.2c0 14.8 5.9 28.9 16.5 39.5 10.6 10.6 24.7 16.5 39.5 16.5h784m0 64H120c-66 0-120-54-120-120V231c0-66 54-120 120-120h186.1c2.2 0 4-1.8 4-4v-125.1c0-17.4 14.3-30 30-30 4.5 0 9.2 1.1 13.7 3.3l221.4 155.3c0.6 0.4 1.3 0.5 2 0.5H904c66 0 120 54 120 120V696.2c0 66-54 120-120 120zM448 448a64 62.4 0 1 1 128 0 64 62.4 0 1 1-128 0zM213.2 448a64 62.4 0 1 1 128 0 64 62.4 0 1 1-128 0zM682.5 448a64 62.4 0 1 1 128 0 64 62.4 0 1 1-128 0z"  horiz-adv-x="1024" />

    
    <glyph glyph-name="chakansaomiaojian" unicode="&#59180;" d="M519.062 413.039h-205.05c-6.809 0-12.352-5.707-12.352-12.742v-25.472c0-7.024 5.586-12.743 12.352-12.743h158.847c12.864 19.887 27.102 38.27 46.203 50.957z m-91.007-152.804H314.023c-6.804 0-12.347-5.731-12.347-12.754v-25.473c0-7.035 5.582-12.742 12.347-12.742h105.868c-0.149 9.672-0.055 19.234 2.011 28.883 0.094 0.461 3.789 17.644 2.676 6.547 0.543 5.418 1.848 10.57 3.477 15.539z m145.414 267.422v25.472c0 7.035-5.5 12.742-12.348 12.742H314.035c-6.805 0-12.375-5.707-12.375-12.742v-25.472c0-7.012 5.586-12.743 12.352-12.743h247.066c6.938 0.102 12.481 5.805 12.391 12.743z m0 0M474.871 26.848h-296.75c-13.629 0-24.738 11.383-24.738 25.469V714.586c0 14.086 11.109 25.469 24.738 25.469h518.891c13.652 0 24.711-11.383 24.711-25.469v-237.519c16.965-1.426 33.445-4.485 49.406-8.817V740.055c0 28.121-22.113 50.945-49.406 50.945H153.395C126.145 791 104 768.203 104 740.055v-713.207c0-28.121 22.129-50.945 49.395-50.945h371.914a281.519 281.519 0 0 0-50.438 50.945z m0 0M680.815 305.324c-47.301 0-85.646-38.344-85.646-85.637 0-47.292 38.345-85.637 85.646-85.637 47.293 0 85.637 38.345 85.637 85.637 0.017 47.293-38.344 85.637-85.637 85.637zM697.703 418.801c-122.265 0-221.406-99.156-221.406-221.449s99.156-221.449 221.406-221.449c122.238 0 221.395 99.156 221.395 221.422 0 122.347-99.157 221.476-221.395 221.476z m129.263-345.283v0.01c-10.037-10.037-26.3-10.037-36.337 0l-45.348 45.346c-18.646-11.954-40.691-19.083-64.475-19.083-66.223 0-119.903 53.672-119.903 119.895 0 66.225 53.68 119.895 119.903 119.895 66.225 0 119.896-53.68 119.896-119.895 0-23.793-7.128-45.83-19.083-64.484l45.348-45.348c10.036-10.036 10.036-26.308-0.001-36.336z"  horiz-adv-x="1024" />

    
    <glyph glyph-name="shangchuansaomiaojian" unicode="&#59181;" d="M519.062 413.039h-205.05c-6.809 0-12.352-5.707-12.352-12.742v-25.472c0-7.024 5.586-12.743 12.352-12.743h158.847c12.864 19.887 27.102 38.27 46.203 50.957z m-91.007-152.804H314.023c-6.804 0-12.347-5.731-12.347-12.754v-25.473c0-7.035 5.582-12.742 12.347-12.742h105.868c-0.149 9.672-0.055 19.234 2.011 28.883 0.094 0.461 3.789 17.644 2.676 6.547 0.543 5.418 1.848 10.57 3.477 15.539z m145.414 267.422v25.472c0 7.035-5.5 12.742-12.348 12.742H314.035c-6.805 0-12.375-5.707-12.375-12.742v-25.472c0-7.012 5.586-12.743 12.352-12.743h247.066c6.938 0.102 12.481 5.805 12.391 12.743z m0 0M474.871 26.848h-296.75c-13.629 0-24.738 11.383-24.738 25.469V714.586c0 14.086 11.109 25.469 24.738 25.469h518.891c13.652 0 24.711-11.383 24.711-25.469v-237.519c16.965-1.426 33.445-4.485 49.406-8.817V740.055c0 28.121-22.113 50.945-49.406 50.945H153.395C126.145 791 104 768.203 104 740.055v-713.207c0-28.121 22.129-50.945 49.395-50.945h371.914a281.519 281.519 0 0 0-50.438 50.945z m0 0M697.703 418.801c-122.265 0-221.406-99.156-221.406-221.449s99.156-221.449 221.406-221.449c122.238 0 221.395 99.156 221.395 221.422 0 122.347-99.157 221.476-221.395 221.476z m71.309-216.273c-7.012 0-13.313 2.648-17.676 6.847l-29.871 28.879v-135.683c0-11.426-10.637-20.68-23.774-20.68-13.125 0-23.773 9.266-23.773 20.68V238.254l-29.875-28.879a25.42 25.42 0 0 0-17.676-6.847c-13.121 0-23.773 9.265-23.773 20.675 0 5.325 2.312 10.176 6.101 13.829l71.321 68.945c4.347 4.211 10.652 6.848 17.66 6.848 7.023 0 13.328-2.649 17.676-6.848l71.32-68.945c3.789-3.668 6.098-8.516 6.098-13.829 0.027-11.425-10.622-20.675-23.758-20.675z m0 0"  horiz-adv-x="1024" />

    
    <glyph glyph-name="neiwuguanli" unicode="&#59133;" d="M1160.5854256 599.40799278h135.08377522V533.28826706h337.69866293v66.15204461h135.09454821V533.28826706h135.09454812v231.45674922h-236.40199202v33.07602229c0 64.44976413-52.28597617 99.195748-101.27512116 99.19575189H1363.14644477a98.15067682 98.15067682 0 0 1-101.32899379-99.19575189v-33.07602229H1025.49087751V533.28826706h135.09454809v66.15204461z m168.77391489 198.41304579a32.60196899 32.60196899 0 0 0 33.78710428 33.04370344h202.67952952s33.78710418 0 33.78710807-33.04370344v-33.07602227h-270.25374187v33.07602227z m304.00852326-305.76467633v8.17742849h-337.69866293v-99.23884761h-135.08377522v99.23884761h-101.32898985v-330.76023834h347.11509164a276.16863737 276.16863737 0 0 0 227.0071094 322.55048708z m135.08377527-11.70050763a275.93161262 275.93161262 0 0 0 101.27512109-62.48890527v82.36684139h-101.27512109v-19.86716314z m-506.56954248-46.32798108v132.27177029H1194.31866103v-132.2609972z m415.87443542 61.59466739a277.17061659 277.17061659 0 0 0 56.94032171-5.89335351v76.57045641h-67.55265866v-70.90335853c3.52308289 0.12928722 7.05693505 0.22625164 10.61233695 0.22625563z m234.87209462-239.48334446h-23.17476743a28.01226895 28.01226895 0 0 0-25.00633504 18.42345339l-13.30582746 32.32184854a27.72137166 27.72137166 0 0 0 4.50351238 30.65188311l16.44104474 16.40872572a19.31769135 19.31769135 0 0 1 0 27.31195999l-27.32273298 27.2904141a19.39310987 19.39310987 0 0 1-27.31196385 0l-16.44104476-16.41949878a27.58131137 27.58131137 0 0 0-30.64111004-4.53583139l-32.32184854 13.27350473a28.01226895 28.01226895 0 0 0-18.42345342 25.03865789v23.15321752a19.39310987 19.39310987 0 0 1-19.30691839 19.30691837h-38.59228295a19.39310987 19.39310987 0 0 1-19.32846823-19.30691837v-23.15321752a27.87220481 27.87220481 0 0 0-18.42344944-25.03865789l-32.32184858-13.27350473a27.57053456 27.57053456 0 0 0-30.63033706 4.53583139l-16.4625946 16.41949878a19.39310987 19.39310987 0 0 1-27.30118699 0l-27.29041407-27.2904141a19.39310987 19.39310987 0 0 1 0-27.31195999l16.38717597-16.40872572a27.54898864 27.54898864 0 0 0 4.53583518-30.65188311l-13.28428156-32.32184854a27.89375467 27.89375467 0 0 0-25.03865784-18.44499927h-23.15321751a19.39310987 19.39310987 0 0 1-19.30691447-19.30691839v-38.59228699a19.39310987 19.39310987 0 0 1 19.30691447-19.32846425h23.15321751a27.87220481 27.87220481 0 0 0 24.99556213-18.42345345l13.32737727-32.32184455a27.67827587 27.67827587 0 0 0-4.53583518-30.69498277l-16.41949878-16.38717593a19.39310987 19.39310987 0 0 1 0-27.31196007l27.31196391-27.32273679a19.39310987 19.39310987 0 0 1 27.2904101 0l16.44104864 16.43027174a27.50589289 27.50589289 0 0 0 30.59801438 4.46041667l32.32184846-13.28428158a27.89375467 27.89375467 0 0 0 18.42345345-25.03865784v-23.02392648a19.39310987 19.39310987 0 0 1 19.32846429-19.27459548h38.5922869a19.39310987 19.39310987 0 0 1 19.30691447 19.27459548v23.11011792a28.01226895 28.01226895 0 0 0 18.42345332 25.03865793l32.32184854 13.28428146a27.66750298 27.66750298 0 0 0 30.69497889-4.46041665l16.3440841-16.43027167a19.39310987 19.39310987 0 0 1 27.31195999 0l27.32273297 27.32273682a19.30691836 19.30691836 0 0 1 0 27.31196l-16.44104478 16.38717601a27.75369444 27.75369444 0 0 0-4.5035123 30.69498275l13.30582748 32.32184458a28.01226895 28.01226895 0 0 0 25.0063389 18.39113446h23.17476353a19.39310987 19.39310987 0 0 1 19.28536852 19.30691446v38.63538274a19.39310987 19.39310987 0 0 1-19.28536852 19.30691836zM1681.08568207 121.07697103999999a96.4914883 96.4914883 0 1 0 96.50226505 96.48071538 96.4914883 96.4914883 0 0 0-96.50226505-96.48071531z"  horiz-adv-x="3378" />

    
    <glyph glyph-name="danganguanli" unicode="&#59175;" d="M854.86477735 204.73262263000004a31.78852125 31.78852125 0 0 0-31.99719843-31.41985781H709.70183204a31.78852125 31.78852125 0 0 0-31.99719841 31.41985781v527.95378501a31.78852125 31.78852125 0 0 0 31.99719841 31.41985875h113.19357001a31.78852125 31.78852125 0 0 0 31.99719939-31.41985875z m-41.34594562 464.16806439a10.84426781 10.84426781 0 0 1-9.36961499 11.76244873H728.44106205a12.0615525 12.0615525 0 0 1 0-23.51794124h75.52034531a10.84426781 10.84426781 0 0 1 9.369615 11.76244874z m0-52.16934657a10.84426781 10.84426781 0 0 1-9.36961499 11.76244874H728.44106205a12.0615525 12.0615525 0 0 1 0-23.51794124h75.52034531a10.84426781 10.84426781 0 0 1 9.369615 11.76244873z m0-69.64259906a10.84426781 10.84426781 0 0 1-9.36961499 11.76244873H728.44106205a12.0615525 12.0615525 0 0 1 0-23.51794125h75.52034531a10.84426781 10.84426781 0 0 1 9.369615 11.76244875z m18.37752189-147.0062625a18.37752187 18.37752187 0 0 1-18.37752189 18.37752188H719.80877393a18.37752187 18.37752187 0 1 1 0-36.7480875h92.97968718a18.37752187 18.37752187 0 0 1 18.37752189 18.37752187z m-20.02607344-110.25121782a84.02047125 84.02047125 0 1 1-0.54951656-1.28684438z m-26.09162907 0a9.98173499 9.98173499 0 1 1-0.54951656-1.28684438zM662.99983362 204.73262263000004a31.78852125 31.78852125 0 0 0-31.99719938-31.41985781H517.85775612a31.78852125 31.78852125 0 0 0-32.15718469 31.41985781v527.95378501a31.78852125 31.78852125 0 0 0 31.99719844 31.41985875h113.17270217a31.78852125 31.78852125 0 0 0 31.99719938-31.41985875z m-41.31812251 464.16806439a10.84426781 10.84426781 0 0 1-9.36961405 11.76244873H536.60394143a12.0615525 12.0615525 0 0 1 0-23.51794124h75.52034532a10.84426781 10.84426781 0 0 1 9.369615 11.76244874z m0-52.16934657a10.84426781 10.84426781 0 0 1-9.36961405 11.76244874H536.60394143a12.0615525 12.0615525 0 0 1 0-23.51794124h75.52034532a10.84426781 10.84426781 0 0 1 9.369615 11.76244873z m0-69.64259906a10.84426781 10.84426781 0 0 1-9.36961405 11.76244873H536.60394143a12.0615525 12.0615525 0 0 1 0-23.51794125h75.52034532a10.84426781 10.84426781 0 0 1 9.369615 11.76244875z m18.36361032-147.02017406a18.37752187 18.37752187 0 0 1-18.37752189 18.37752186H527.96469798a18.37752187 18.37752187 0 1 1 0-36.74808749h92.97968625a18.37752187 18.37752187 0 0 1 18.37752189 18.37752187z m-20.02607344-110.25121875a118.29921001 118.29921001 0 1 1-0.73732686-1.28684344z m-26.09162907 0a9.98173499 9.98173499 0 1 1-0.54951654-1.28684344zM401.54098174 200.69123732000003a31.78852125 31.78852125 0 0 0-35.47515563-27.3784725l-112.27538906 13.5988097a31.78852125 31.78852125 0 0 0-28.10188781 34.92563812l63.02752594 524.44104937a31.78852125 31.78852125 0 0 0 35.47515561 27.19761844l112.27538907-13.5988097a31.78852125 31.78852125 0 0 0 28.11580032-34.91172656z m14.33613655 466.0044253a10.84426781 10.84426781 0 0 1-7.90191749 12.84061501l-75.15863812 9.04268719a11.82505219 11.82505219 0 0 1-2.78236501-22.95451312l74.99865188-9.04268624a10.84426781 10.84426781 0 0 1 10.84426874 10.65645842z m-6.26032217-51.82155093a10.84426781 10.84426781 0 0 1-7.90191658 12.86148282l-75.12385873 9.00095157a12.15893531 12.15893531 0 0 1-2.94235126-23.51794126l74.97082874-9.00790688a10.84426781 10.84426781 0 0 1 10.8234 10.63559063z m-8.27058-69.09308157a10.84426781 10.84426781 0 0 1-7.90191657 12.86148283l-75.12385875 9.55742342a12.15893531 12.15893531 0 0 1-2.94235125-23.51794124L390.32805049 535.6810445a10.84426781 10.84426781 0 0 1 10.84426781 10.65645843z m0-149.02347748A18.37752187 18.37752187 0 0 1 385.00677705 416.60277201l-91.88065312 11.02512188a17.69584219 17.69584219 0 1 1-4.22919469-35.09953595l91.88065219-11.02512187a18.37752187 18.37752187 0 0 1 20.58254625 15.25431657z m-33.06145406-107.30886751a45.0186675 45.0186675 0 1 1-49.98518908-39.32177532 45.0186675 45.0186675 0 0 1 49.98518908 39.32177532z m-25.91077501 3.12320532a18.37752187 18.37752187 0 1 0-3.68663342 14.15528251 18.37752187 18.37752187 0 0 0 3.68663342-14.15528251z"  horiz-adv-x="1122" />

    
    <glyph glyph-name="yunweixitong" unicode="&#59176;" d="M1125.41286554 448.44790262a19.31352095 19.31352095 0 0 0-15.23041743 23.12271674 19.57468627 19.57468627 0 1 0 15.23041743-23.12271674z m-320.7241973-47.33468766h-41.62089122V487.36158912h40.53163978z m-79.97402678 0h-41.6208926V487.36158912h41.6208926z m-76.98654727 0h-38.08560041V487.36158912h38.35313556z m525.82843565 99.02001258A32.097899 32.097899 0 0 1 1140.06362396 530.03988267H582.14365913a31.28255253 31.28255253 0 0 1-33.18715182-29.1040483v-103.64455619a31.00864756 31.00864756 0 0 1 32.64571031-30.46720608h558.74805095a32.097899 32.097899 0 0 1 33.18715182 29.65185961z m-48.1436643 148.52683465a19.85496108 19.85496108 0 0 0 0 38.62704051 19.58742592 19.58742592 0 0 0 0-38.62704051z m-320.7241973-46.78687635h-41.62089122v86.22926332h40.53163978z m-79.97402678 0h-41.6208926v86.22926332h41.6208926z m-76.98654727 0h-38.08560041v86.22926332h38.35313556z m525.82843565 98.47220127a32.097899 32.097899 0 0 1-33.46105679 29.37795465H582.14365913a31.00864756 31.00864756 0 0 1-34.00249827-27.20582024 29.65822944 29.65822944 0 0 1 0-4.89844997v-102.01386189a31.55645889 31.55645889 0 0 1 32.91324546-29.10404969h558.20024099a31.55645889 31.55645889 0 0 1 33.18715044 29.10404969z m-33.49290588-372.13561728H582.14365913A31.28255253 31.28255253 0 0 1 548.93739786 298.8127071v-102.28139979a31.28255253 31.28255253 0 0 1 33.18715042-29.37795327h557.93907568a31.84947331 31.84947331 0 0 1 33.46105679 29.37795327V298.8127071a31.84947331 31.84947331 0 0 1-33.46105679 29.37795327z"  horiz-adv-x="1828" />

    
    <glyph glyph-name="mima1" unicode="&#59178;" d="M793.586743 460.779167a76.817045 76.817045 0 0 0 76.817045-76.817045v-358.403788a76.817045 76.817045 0 0 0-76.817045-76.817045H230.375379a76.817045 76.817045 0 0 0-76.817045 76.817045v358.403788a76.817045 76.817045 0 0 0 76.817045 76.817045h563.211364m0 76.817045H230.375379A153.596212 153.596212 0 0 1 76.779167 384v-358.403788a153.596212 153.596212 0 0 1 153.596212-153.596212h563.249242a153.596212 153.596212 0 0 1 153.596212 153.596212v358.36591a153.596212 153.596212 0 0 1-153.63409 153.63409z m-281.548865 281.586743a179.164016 179.164016 0 0 0 179.164016-179.201894v-102.271214h-358.328031v102.271214a179.164016 179.164016 0 0 0 179.164015 179.164016m0 76.817045a256.018939 256.018939 0 0 1-256.018939-255.981061v-179.201894H768.056817V639.943183A256.018939 256.018939 0 0 1 512.037878 895.886365z m0-806.389584a38.370644 38.370644 0 0 0-38.370644 38.408523v153.596212a38.370644 38.370644 0 0 0 76.741289 0v-153.596212a38.370644 38.370644 0 0 0-38.370645-38.370644z"  horiz-adv-x="1024" />

    
    <glyph glyph-name="zhanghao" unicode="&#59179;" d="M353.301624 390.882807a268.968585 268.968585 0 1 0 277.605012 12.083254 478.334196 478.334196 0 0 0 359.205706-463.307585h-77.689126a400.451428 400.451428 0 1 1-800.864127 0H33.831234a478.334196 478.334196 0 0 0 319.47039 451.185603z m128.810585 44.808734a191.24073 191.24073 0 1 1-191.240731 191.24073 191.24073 191.24073 0 0 1 191.202002-191.202002zM475.179829 264.35719700000004h80.090285l20.448584-30.672876a29.898308 29.898308 0 0 0 1.781505-30.014493l-34.85554-68.74287 39.15439-188.994485a29.898308 29.898308 0 0 0-9.217354-28.194259l-47.054979-42.601215a11.92834 11.92834 0 0 0-16.498289 0.426012l-48.642842 49.068855a29.898308 29.898308 0 0 0-8.13296 26.528938l34.197158 183.84361-35.513923 67.852119a29.898308 29.898308 0 0 0 2.284975 31.447442z"  horiz-adv-x="1024" />

    
    <glyph glyph-name="bingzhuangtu" unicode="&#59134;" d="M542.1056 414.1056V896H512A512 512 0 1 1 1024 384v30.1056zM481.8944 834.7648v-480.938667h480.8704l-0.477867-6.826666A451.7888 451.7888 0 1 0 474.999467 834.286933l6.826666 0.546134zM582.2464 875.9296V454.314667h421.956267l-0.341334 37.000533A391.5776 391.5776 0 0 1 612.420267 875.9296z m60.2112-361.403733V814.011733h1.774933a331.3664 331.3664 0 0 0 297.915734-298.1888v-1.501866H642.389333z"  horiz-adv-x="1024" />

    
    <glyph glyph-name="Excel" unicode="&#59135;" d="M875.590583 594.212571L597.647726 874.642286a76.946286 76.946286 0 0 1-14.628572 11.556571c-1.389714 0.731429-2.852571 1.609143-4.315428 2.267429a27.282286 27.282286 0 0 1-2.779429 1.243428 71.753143 71.753143 0 0 1-29.257143 6.290286H201.140297a73.142857 73.142857 0 0 1-73.142857-72.045714v-879.981715A73.142857 73.142857 0 0 1 201.140297-128h623.762286a71.168 71.168 0 0 1 71.094857 72.045714v599.771429a71.387429 71.387429 0 0 1-20.406857 50.761143zM583.604297 785.627429l201.069714-201.654858H583.604297V785.554286z m240.274286-841.654858H200.116297V823.954286h311.369143v-239.981715a73.142857 73.142857 0 0 1 73.142857-71.972571h239.396572v-568.027429zM460.578011 228.717714l-55.881142 155.794286h86.016l15.798857-57.417143c4.242286-15.213714 8.630857-31.890286 14.043428-52.589714h1.682286c11.044571 20.699429 20.845714 37.522286 30.134857 52.589714l33.426286 57.417143h81.700571l-111.177143-159.305143 60.050286-161.865143H530.283154l-18.797714 62.683429c-4.827429 16.822857-9.142857 33.572571-14.628571 53.467428H495.174583c-11.190857-19.894857-21.211429-36.571429-31.378286-53.540571l-38.765714-62.610286H343.03744l117.613714 165.302857z"  horiz-adv-x="1024" />

    
    <glyph glyph-name="bianji1" unicode="&#59136;" d="M984.502857-128H39.497143a39.497143 39.497143 0 1 0 0 78.921143h945.005714a39.497143 39.497143 0 1 0 0-78.921143zM683.227429 872.886857L187.830857 378.88a39.424 39.424 0 0 1-11.410286-24.356571l-22.381714-245.613715a39.497143 39.497143 0 0 1 43.008-42.861714l246.272 22.308571a39.643429 39.643429 0 0 1 24.429714 11.410286l495.396572 493.933714a78.774857 78.774857 0 0 1 0 111.616l-168.228572 167.424a79.36 79.36 0 0 1-111.981714 0z m-54.125715-165.595428l168.228572-167.424-375.149715-374.052572-184.758857-16.749714 16.749715 184.173714z m110.153143 109.714285l168.228572-167.424-54.125715-53.979428-168.228571 167.424z m0 0"  horiz-adv-x="1024" />

    
    <glyph glyph-name="dayin2" unicode="&#59137;" d="M910.46099 647.582482h-56.830214V793.424755a108.028605 108.028605 0 0 1-113.660427 102.396782h-467.368169a97.788927 97.788927 0 0 1-102.396782-102.396782v-145.842273h-67.581876a97.788927 97.788927 0 0 1-102.396781-102.396782v-390.058598a107.004637 107.004637 0 0 1 102.396781-112.63646h68.09386v-62.974021A107.516621 107.516621 0 0 1 278.234003-128h468.099574a107.516621 107.516621 0 0 1 107.516621 107.516621v62.974021h56.830214a117.024894 117.024894 0 0 1 113.660428 112.63646V545.1857a108.028605 108.028605 0 0 1-113.660428 102.396782z m-677.281571 145.915414a36.570279 36.570279 0 0 0 39.422761 40.446729h467.368169c22.527292 0 51.198391-13.823566 51.198391-40.446729v-145.915414H233.25256z m557.989321-813.908135a45.054584 45.054584 0 0 0-45.054584-45.566567h-468.099574a45.054584 45.054584 0 0 0-45.054584 45.566567v204.793564a45.054584 45.054584 0 0 0 45.054584 46.078552h468.099574a45.054584 45.054584 0 0 0 45.054584-45.566568z m171.002625 175.537341a54.782278 54.782278 0 0 0-51.198391-51.198391h-57.342198V183.213076a107.516621 107.516621 0 0 1-107.51662 107.516621h-468.099574a107.516621 107.516621 0 0 1-107.516621-107.516621v-78.333538h-68.09386a45.054584 45.054584 0 0 0-39.934745 51.198391v389.107771a37.374825 37.374825 0 0 0 39.934745 40.446729h808.056889c23.039276 0 51.198391-13.823566 51.198391-40.446729z m-767.975863 337.324255h-45.054584a15.871501 15.871501 0 0 0 0 31.231019h46.590535a15.871501 15.871501 0 1 0 0-31.231019z m113.148443 0h-51.19839a15.871501 15.871501 0 1 0 0 31.231019h51.19839a15.871501 15.871501 0 0 0 0-31.231019z m511.98391-139.771607H195.877734a15.871501 15.871501 0 0 0 0 31.231019h623.523261a15.871501 15.871501 0 0 0 0-31.231019z"  horiz-adv-x="1024" />

    
    <glyph glyph-name="pdf" unicode="&#59138;" d="M791.807509 799.962766H135.789691A31.963406 31.963406 0 0 1 103.826286 767.926217v-863.962811a32.036549 32.036549 0 0 1 32.036548-32.036549h495.98136l191.999863 191.999863V767.99936a32.036549 32.036549 0 0 1-32.036548 31.963406z m-16.018275-672.036092H599.807646a32.036549 32.036549 0 0 1-31.963406-32.036548v-175.981589h-383.999726a32.036549 32.036549 0 0 0-31.963405 31.963406v767.999451a31.963406 31.963406 0 0 0 32.036548 31.963406h559.981314a32.036549 32.036549 0 0 0 32.036549-32.036548V127.999817zM887.844011 895.999269H219.830774A47.98168 47.98168 0 0 1 171.849094 848.017589h668.013237a32.036549 32.036549 0 0 0 32.036549-32.036549v-667.647523a47.98168 47.98168 0 0 1 47.98168 47.689109V863.96272a32.036549 32.036549 0 0 1-31.963406 31.963406zM284.196443 231.789457a42.203398 42.203398 0 0 0-45.421682 31.524549c-2.047999 13.677705 2.998855 39.131401 59.611386 56.466246 20.918842 6.436567 45.421682 12.653705 71.167949 18.139415a1275.317946 1275.317946 0 0 1 87.259366 129.243336 193.170148 193.170148 0 0 0-22.454841 83.529084c2.779427 73.581662 31.890263 81.481085 44.251397 81.481084a35.181689 35.181689 0 0 0 27.501695-14.994275 120.173628 120.173628 0 0 0 10.16685-100.790785 246.930109 246.930109 0 0 0-23.259412-50.395392 658.285244 658.285244 0 0 1 69.63195-106.422782 180.516442 180.516442 0 0 0 97.865073-21.942841 57.490245 57.490245 0 0 0 27.062838-59.9771 32.32912 32.32912 0 0 0-32.694834-21.942842 113.078776 113.078776 0 0 0-62.390813 27.428552 306.175781 306.175781 0 0 0-44.909682 44.763397 904.995925 904.995925 0 0 1-159.963314-18.651415 268.653522 268.653522 0 0 0-71.241092-69.412522 71.753092 71.753092 0 0 0-32.036549-7.82628z m51.199963 65.170239a690.468078 690.468078 0 0 1-27.282266-7.679994c-29.915407-9.142851-37.010259-19.163415-37.302831-21.357699a20.260557 20.260557 0 0 1 13.750848-4.095997 39.716543 39.716543 0 0 1 17.627416 4.388568 135.094761 135.094761 0 0 1 33.206833 28.745122z m257.243245 28.818266a178.395301 178.395301 0 0 1 19.236558-17.261702 82.285656 82.285656 0 0 1 43.227397-21.065128 7.679995 7.679995 0 0 1 2.706284 0.365714 32.036549 32.036549 0 0 1-15.725703 23.698269 105.471925 105.471925 0 0 1-49.444536 14.262847z m-174.079876 21.942841l-0.804571-1.023999a948.442751 948.442751 0 0 0 104.30164 11.775991l-0.804571 1.024h1.170285a704.511497 704.511497 0 0 0-47.762251 73.142805l-0.512-0.950857v0.512c-17.115416-28.013694-37.083402-57.929101-56.685674-85.065082h1.462856z m59.684529 252.269534a89.819364 89.819364 0 0 1-11.629706-50.834249 123.61134 123.61134 0 0 1 10.093707-46.445681 125.074196 125.074196 0 0 1 8.850279 21.284556c11.849134 46.591967-1.462856 73.727947-7.31428 75.995374z"  horiz-adv-x="1024" />

    
    <glyph glyph-name="guanbi2" unicode="&#59139;" d="M609.957698 383.42607l380.385708-380.134351a67.531031 67.531031 0 1 0-95.515354-95.515354L514.442344 287.910716l-396.388718-396.388718a69.625666 69.625666 0 0 0-98.447843 98.447843l396.388719 396.388718L35.441223 766.660481A67.447245 67.447245 0 0 0 130.956577 862.008264l380.553278-380.218137 393.791372 393.791371a69.625666 69.625666 0 0 0 98.447842-98.447842z"  horiz-adv-x="1024" />

    
    <glyph glyph-name="chaxunjieguo" unicode="&#59140;" d="M294.682555 448.042371h428.819685c25.625382 0 44.763326 12.812691 44.763326 32.031728a35.843098 35.843098 0 0 1-38.438073 32.031727H294.682555a32.437193 32.437193 0 1 1 0-63.982362zM774.590819 710.378166V896h-608.19736A146.859389 146.859389 0 0 1 63.973023 742.409893v-735.999898a131.208444 131.208444 0 0 1 134.37107-134.37107h761.544188V710.378166zM179.449429 832.017638h525.158147v-128.045818H179.449429a58.549133 58.549133 0 0 0-51.169672 63.982362 58.549133 58.549133 0 0 0 51.169672 64.063456z m716.780862-895.996351H179.449429a56.765087 56.765087 0 0 0-51.169672 57.576017V639.989458a150.589666 150.589666 0 0 1 51.169672-12.812691h716.780862zM294.682555 256.014191h428.819685a35.843098 35.843098 0 0 1 38.438074 32.031728 30.247682 30.247682 0 0 1-32.031728 32.031728H294.763648a32.437193 32.437193 0 1 1 0-63.982363z m0-192.02818h428.819685a35.843098 35.843098 0 0 1 38.438074 32.031728 30.247682 30.247682 0 0 1-32.031728 32.031728H294.763648a32.437193 32.437193 0 1 1 0-63.982363z"  horiz-adv-x="1024" />

    
    <glyph glyph-name="danganleixing" unicode="&#59141;" d="M445.12096 837.13962h534.605798a102.365878 102.365878 0 0 0 102.365878-102.365878V534.81906a102.365878 102.365878 0 0 0 58.433855-92.47051v-467.641452a102.365878 102.365878 0 0 0-102.365878-102.365878H102.365878a102.365878 102.365878 0 0 0-102.365878 102.365878v818.927024a102.365878 102.365878 0 0 0 102.365878 102.365878h250.284572a102.365878 102.365878 0 0 0 92.47051-58.86038z m30.027324-87.693435l64.917028-194.751083a14.672443 14.672443 0 0 1 13.904698-9.980673h440.42919V734.773742a14.587138 14.587138 0 0 1-14.672442 14.587138H475.148284z m-387.369544 43.761412v-818.927024a14.672443 14.672443 0 0 1 14.672443-14.672442h935.794735a14.672443 14.672443 0 0 1 14.672443 14.672442V442.263246a14.672443 14.672443 0 0 1-14.672443 14.672442H553.97001a102.365878 102.365878 0 0 0-97.076974 69.950017l-90.423193 271.098967a14.672443 14.672443 0 0 1-13.819393 9.980673H102.365878a14.672443 14.672443 0 0 1-14.672442-14.672443z"  horiz-adv-x="1140" />

    
    <glyph glyph-name="chaxuntiaojian" unicode="&#59142;" d="M1122.04984 896H123.435914A124.479034 124.479034 0 0 1 0 772.564086v-777.037769a124.479034 124.479034 0 0 1 123.435914-123.435913h454.452786a44.332617 44.332617 0 0 1 44.854177 44.854177v2.781654a44.332617 44.332617 0 0 1-44.854177 44.854177h-412.032557a75.452375 75.452375 0 0 0-75.713155 75.713156V772.390233a34.075266 34.075266 0 0 0 33.640632 33.640633h998.26622a34.075266 34.075266 0 0 0 33.640633-33.640633v-286.075769a44.332617 44.332617 0 0 1 44.854177-44.854177h2.781654a44.332617 44.332617 0 0 1 44.854178 44.854177V772.390233A130.91161 130.91161 0 0 1 1122.04984 896z m-2.781654-676.028944a224.444739 224.444739 0 1 1-224.444739-227.226393 217.316749 217.316749 0 0 1 126.217568 39.290868l112.22237-120.654259a43.637203 43.637203 0 1 1 61.717956 61.717957l-115.004023 123.435913a208.624079 208.624079 0 0 1 39.290868 123.435914z m-224.444739-137.431112a134.649458 134.649458 0 1 0 134.649458 134.649458 134.649458 134.649458 0 0 0-134.649458-134.649458z m-580.670354 448.802551h622.742877a44.854177 44.854177 0 1 1 0 89.79528H314.153093a44.854177 44.854177 0 1 1 0-89.79528z m232.789702-151.513238a44.332617 44.332617 0 0 1-44.854177 44.854177H314.153093a44.854177 44.854177 0 1 1 0-89.795281h187.935525a44.332617 44.332617 0 0 1 44.854177 44.941104zM314.153093 225.534365a44.854177 44.854177 0 0 1 0-89.795281h89.795281a44.854177 44.854177 0 0 1 0 89.795281z"  horiz-adv-x="1249" />

    
    <glyph glyph-name="chengguoguanli" unicode="&#59143;" d="M1072.539261 431.703622a94.369183 94.369183 0 0 1-59.877246 39.729426l58.084231 164.249562a69.833195 69.833195 0 0 1-2.972629 54.545387 72.14524 72.14524 0 0 1-40.295641 36.756797L563.228783 891.800571a69.833195 69.833195 0 0 1-54.545388-2.972629 72.192425 72.192425 0 0 1-36.756797-40.295641L394.260761 629.171136a28.87697 28.87697 0 0 0-12.456732 8.304488L302.958577 733.543452l-1.179615 1.179615a65.067551 65.067551 0 0 1-48.033914 21.940835h-188.738365a71.909317 71.909317 0 0 1-64.64289-78.845452v-727.020183a71.909317 71.909317 0 0 1 64.64289-78.845452h762.502995a93.51986 93.51986 0 0 1 87.14994 58.697632l166.608792 412.676435a92.009953 92.009953 0 0 1-8.729149 88.37674zM528.217816 828.431665a9.436918 9.436918 0 0 0 5.945258 6.511474 13.589162 13.589162 0 0 0 8.917888 0.6134l464.249194-164.815778a9.436918 9.436918 0 0 0 6.511473-5.945258 13.589162 13.589162 0 0 0 0.6134-8.870703l-64.64289-182.038154h-88.329555l-334.538752 118.622063a29.631923 29.631923 0 0 1-20.147821-55.725002l177.27251-62.849876H402.423696zM66.327852 697.400055h186.94535a8.681965 8.681965 0 0 0 4.71846-2.972629l78.845452-95.454428a87.244309 87.244309 0 0 1 38.549811-26.659294l-34.963782-99.606672H266.909549a93.51986 93.51986 0 0 1-87.14994-58.697632L59.816378 117.454244V677.771265a28.310755 28.310755 0 0 0 6.511474 19.581606z m960.772647-331.377384l-166.608791-412.676436a34.775044 34.775044 0 0 0-32.038338-21.940835H100.159204a33.736983 33.736983 0 0 0-29.065708 15.429362 35.24689 35.24689 0 0 0-3.538845 32.604552l166.608792 412.676436a34.775044 34.775044 0 0 0 32.038337 21.940835h727.539213a33.736983 33.736983 0 0 0 29.065709-15.429362 31.000276 31.000276 0 0 0 4.152244-32.604552zM555.867986 437.12985l339.729058-120.367893a30.103769 30.103769 0 0 1 10.097502-1.793014 29.396 29.396 0 0 1 27.886094 19.581605 29.726293 29.726293 0 0 1-17.788591 37.747673l-339.729058 120.367893a29.679108 29.679108 0 0 1-37.747673-17.788591 29.254447 29.254447 0 0 1 17.552668-37.747673z"  horiz-adv-x="1088" />

    
    <glyph glyph-name="shujuliebiao-" unicode="&#59144;" d="M1087.769238 767.91892h-767.837109a63.986426 63.986426 0 0 0 0 127.972852h767.837109a64.13268 64.13268 0 0 0 63.986425-63.986426 60.476313 60.476313 0 0 0-63.986425-63.986426z m0-447.90498h-767.837109a63.986426 63.986426 0 0 0 0 127.972851h767.837109A64.13268 64.13268 0 0 0 1151.755663 384.000366a60.476313 60.476313 0 0 0-63.986425-63.986426z m0-447.90498h-767.837109a63.986426 63.986426 0 0 0 0 127.972851h767.837109a64.13268 64.13268 0 0 0 63.986425-63.986426 60.476313 60.476313 0 0 0-63.986425-63.986425zM127.972851 831.905346A63.986426 63.986426 0 1 0 63.986426 895.891772a60.476313 60.476313 0 0 0 63.986425-63.986426zM127.972851 384.000366a63.986426 63.986426 0 1 0-63.986425 63.986425A60.476313 60.476313 0 0 0 127.972851 384.000366z m0-447.904981a63.986426 63.986426 0 1 0-63.986425 63.986426 60.476313 60.476313 0 0 0 63.986425-63.986426z"  horiz-adv-x="1152" />

    
    <glyph glyph-name="xinzengdangan" unicode="&#59145;" d="M767.937178 128.062822v159.986912a31.997382 31.997382 0 0 0 63.994765 0v-159.986912h159.986912a31.997382 31.997382 0 0 0 0-63.994765h-159.986912v-159.986912a31.997382 31.997382 0 1 0-63.994765 0v159.986912h-159.986912a31.997382 31.997382 0 0 0 0 63.994765zM639.947648-128H63.994765A63.994765 63.994765 0 0 0 0-64.005235V576.026176L255.979059 896h511.958119a63.994765 63.994765 0 0 0 63.994765-63.994765v-383.968589a31.997382 31.997382 0 0 0-63.994765 0V832.005235H319.973824v-319.973824H63.994765v-575.952883H639.947648a31.997382 31.997382 0 1 0 0-63.994765zM95.992147 576.026176h159.986912V800.007853z"  horiz-adv-x="1024" />

    
    <glyph glyph-name="jianzhudanwei" unicode="&#59146;" d="M1081.306612-61.985658H1046.761058V299.04091a59.5613 59.5613 0 0 1-35.226255 55.051659L697.9871 545.369431V844.877685l-3.403503 6.636831a72.579699 72.579699 0 0 1-83.641083 42.543786L119.221435 757.492748a70.79286 70.79286 0 0 1-48.755179-65.006905v-754.641676H35.240001a34.035029 34.035029 0 0 1-35.226255-32.843803 32.078015 32.078015 0 0 1 35.226255-32.843803h1045.726261a32.92889 32.92889 0 1 1 0 65.687606z m-104.657714 364.685334v-364.515159H697.9871V470.917806zM139.472277 692.656019l487.721963 136.140115v-891.037055H139.472277z m0 0M488.161147 591.912333H279.18607a32.92889 32.92889 0 1 1 0-65.687605h208.88999a32.92889 32.92889 0 1 1 0 65.687605z m0-194.765452H279.18607a32.078015 32.078015 0 0 1-35.226255-32.843803 32.078015 32.078015 0 0 1 35.226255-32.843803h208.88999a32.163102 32.163102 0 0 1 35.226255 32.843803 32.163102 32.163102 0 0 1-35.141168 32.843803z m0-195.701416H279.18607a31.90784 31.90784 0 0 1-35.226255-32.843803 32.078015 32.078015 0 0 1 35.226255-32.843803h208.88999a31.90784 31.90784 0 0 1 35.226255 32.843803 32.163102 32.163102 0 0 1-35.141168 33.184153z m279.002149-33.184153a32.078015 32.078015 0 0 1 35.226255-32.843803h69.601634a31.90784 31.90784 0 0 1 35.226255 32.843803 32.078015 32.078015 0 0 1-35.226255 32.843803h-69.601634a31.90784 31.90784 0 0 1-35.226255-32.843803z m0 0"  horiz-adv-x="1117" />

    
    <glyph glyph-name="quxiantu" unicode="&#59147;" d="M1153.081515-127.992686H44.250849a44.250828 44.250828 0 0 0 0 88.428514h1108.830666a44.250828 44.250828 0 0 0 0-88.428514zM89.81823 856.49681v-944.992889a40.301167 40.301167 0 0 0-40.886302-39.496607H42.422302A40.301167 40.301167 0 0 0 1.536-88.496079V856.49681A40.301167 40.301167 0 0 0 42.422302 895.993417h6.509626a40.154884 40.154884 0 0 0 40.886302-39.496607zM854.223856 50.400322a154.54876 154.54876 0 0 0-129.534242 81.114327 523.476324 523.476324 0 0 0-62.316868 149.648255 1237.706631 1237.706631 0 0 0-35.546946 207.13776v2.34054a397.233466 397.233466 0 0 1-25.160802 119.221239 138.969543 138.969543 0 0 1-133.337619 103.495739c-89.525642 0-142.626636-162.448081-166.251458-259.214768a1813.91824 1813.91824 0 0 1-39.935458-244.147544 42.787991 42.787991 0 0 0-44.689679-39.642891 43.885119 43.885119 0 0 0-39.569749 48.493057 1860.948459 1860.948459 0 0 0 41.910289 255.996525 768.720996 768.720996 0 0 0 81.772604 214.817656 276.476248 276.476248 0 0 0 69.04592 78.773789 162.155514 162.155514 0 0 0 97.790673 33.279548 205.236072 205.236072 0 0 0 140.871231-52.077008 277.939085 277.939085 0 0 0 71.532744-108.323101 491.001336 491.001336 0 0 0 30.573299-147.015148 1179.412565 1179.412565 0 0 1 32.913839-190.168847 427.879907 427.879907 0 0 1 50.394745-122.658907c28.305902-42.714849 51.857582-42.714849 59.537477-42.714849a116.368706 116.368706 0 0 1 77.237809 37.448635 412.081265 412.081265 0 0 1 72.191021 96.986112 857.734645 857.734645 0 0 1 51.199305 108.908236 41.764005 41.764005 0 0 0 52.515858 25.160802 44.835963 44.835963 0 0 0 25.819079-58.513492 958.158425 958.158425 0 0 0-56.904371-120.464651 496.63326 496.63326 0 0 0-88.501656-117.612118 194.630501 194.630501 0 0 0-133.630186-59.976329z"  horiz-adv-x="1197" />

    
    <glyph glyph-name="shujutongji" unicode="&#59148;" d="M231.601786 652.249646h438.792056a24.395745 24.395745 0 1 1 0 48.750071H231.601786a23.02892 23.02892 0 0 1-24.395745-24.395745 24.437164 24.437164 0 0 1 24.395745-24.354326z m0-146.250212h438.792056a24.395745 24.395745 0 1 1 0 48.750071H231.601786a24.395745 24.395745 0 0 1 0-48.750071z m0-170.645957h438.792056a24.395745 24.395745 0 0 1 0 48.75007H231.601786a24.395745 24.395745 0 0 1 0-48.75007z m0-146.250213h255.968936a24.395745 24.395745 0 1 1 0 48.750071h-255.968936a24.395745 24.395745 0 0 1 0-48.750071z m475.364964-73.145815a23.02892 23.02892 0 0 1-24.395745-24.395745v-219.520285h48.75007v219.520285a23.02892 23.02892 0 0 1-24.395744 24.395745z m121.895886 121.895886a23.02892 23.02892 0 0 1-24.395745-24.395745v-341.291914h48.750071v341.291914a24.437164 24.437164 0 0 1-24.395745 24.395745z m121.895886-146.250212a23.02892 23.02892 0 0 1-24.395744-24.395745v-195.000283h48.75007V67.207378a24.437164 24.437164 0 0 1-24.395745 24.354326zM804.425472 896H97.694412A48.915746 48.915746 0 0 1 48.944341 847.249929v-926.334183a48.915746 48.915746 0 0 1 48.750071-48.75007h414.189217a24.395745 24.395745 0 1 1 0 48.75007h-414.189217V847.249929h706.73106v-511.937871a24.395745 24.395745 0 1 1 48.750071 0V847.249929A48.915746 48.915746 0 0 1 804.425472 896z"  horiz-adv-x="1024" />

    
    <glyph glyph-name="jibenxinxi" unicode="&#59149;" d="M651.776 896H187.318857A87.771429 87.771429 0 0 1 99.547429 808.228571v-848.457142A87.771429 87.771429 0 0 1 187.318857-128h648.850286a87.771429 87.771429 0 0 1 87.771428 87.771429V623.104z m16.676571-97.133714L827.318857 640H699.318857a31.158857 31.158857 0 0 0-31.085714 31.085714z m167.862858-869.961143H187.318857a31.158857 31.158857 0 0 0-31.085714 31.085714V807.862857A31.158857 31.158857 0 0 0 187.318857 838.948571H611.547429v-168.228571a87.771429 87.771429 0 0 1 87.771428-87.771429h160.914286a36.571429 36.571429 0 0 1 7.314286 1.097143V-40.228571a31.232 31.232 0 0 0-31.305143-30.866286zM375.808 455.826286h285.915429a28.672 28.672 0 1 1 0 57.270857H375.515429a28.672 28.672 0 0 1 0-57.270857z m0-143.067429h285.915429a28.672 28.672 0 1 1 0 57.270857H375.515429a28.672 28.672 0 0 1 0-57.270857z m0-143.067428h285.915429a28.672 28.672 0 1 1 0 57.270857H375.515429a28.672 28.672 0 0 1 0-57.270857z"  horiz-adv-x="1024" />

    
    <glyph glyph-name="zerenren" unicode="&#59151;" d="M512 383.872032a219.337166 219.337166 0 1 1-219.337166 219.337166A219.337166 219.337166 0 0 1 512 383.872032z m0-73.112389a292.534866 292.534866 0 1 0 292.534866 292.534867 292.534866 292.534866 0 0 0-292.534866-292.534867z m-146.224777 0l146.224777-109.711238 146.224777 109.711238a292.534866 292.534866 0 0 0 292.534866-292.534866V-128H73.240357v146.224777a292.534866 292.534866 0 0 0 292.534866 292.534866z m-22.778306-74.306756a219.337166 219.337166 0 0 1-196.217612-218.22811v-73.112388h731.209198v73.112388a219.337166 219.337166 0 0 1-196.217612 218.22811L512.767808 109.679247z"  horiz-adv-x="1024" />

    
    <glyph glyph-name="danganluru" unicode="&#59152;" d="M1072.539261 431.703622a94.369183 94.369183 0 0 1-59.877246 39.729426l58.084231 164.249562a69.833195 69.833195 0 0 1-2.972629 54.545387 72.14524 72.14524 0 0 1-40.295641 36.756797L563.228783 891.800571a69.833195 69.833195 0 0 1-54.545388-2.972629 72.192425 72.192425 0 0 1-36.756797-40.295641L394.260761 629.171136a28.87697 28.87697 0 0 0-12.456732 8.304488L302.958577 733.543452l-1.179615 1.179615a65.067551 65.067551 0 0 1-48.033914 21.940835h-188.738365a71.909317 71.909317 0 0 1-64.64289-78.845452v-727.020183a71.909317 71.909317 0 0 1 64.64289-78.845452h762.502995a93.51986 93.51986 0 0 1 87.14994 58.697632l166.608792 412.676435a92.009953 92.009953 0 0 1-8.729149 88.37674zM528.217816 828.431665a9.436918 9.436918 0 0 0 5.945258 6.511474 13.589162 13.589162 0 0 0 8.917888 0.6134l464.249194-164.815778a9.436918 9.436918 0 0 0 6.511473-5.945258 13.589162 13.589162 0 0 0 0.6134-8.870703l-64.64289-182.038154h-88.329555l-334.538752 118.622063a29.631923 29.631923 0 0 1-20.147821-55.725002l177.27251-62.849876H402.423696zM66.327852 697.400055h186.94535a8.681965 8.681965 0 0 0 4.71846-2.972629l78.845452-95.454428a87.244309 87.244309 0 0 1 38.549811-26.659294l-34.963782-99.606672H266.909549a93.51986 93.51986 0 0 1-87.14994-58.697632L59.816378 117.454244V677.771265a28.310755 28.310755 0 0 0 6.511474 19.581606z m960.772647-331.377384l-166.608791-412.676436a34.775044 34.775044 0 0 0-32.038338-21.940835H100.159204a33.736983 33.736983 0 0 0-29.065708 15.429362 35.24689 35.24689 0 0 0-3.538845 32.604552l166.608792 412.676436a34.775044 34.775044 0 0 0 32.038337 21.940835h727.539213a33.736983 33.736983 0 0 0 29.065709-15.429362 31.000276 31.000276 0 0 0 4.152244-32.604552zM555.867986 673.052806l339.729058-120.367892a30.103769 30.103769 0 0 1 10.097502-1.793015 29.396 29.396 0 0 1 27.886094 19.581606 29.726293 29.726293 0 0 1-17.788591 37.747673l-339.729058 120.367892a29.679108 29.679108 0 0 1-37.747673-17.788591 29.254447 29.254447 0 0 1 17.552668-37.747673zM501.039491-4.753848H407.566816a11.890517 11.890517 0 0 0-11.843332 11.843333v93.283937a11.796148 11.796148 0 0 0 3.39729 8.257303l234.648973 235.215188a11.654594 11.654594 0 0 0 8.257303 3.39729 11.796148 11.796148 0 0 0 8.257304-3.39729l94.03889-94.369183a11.654594 11.654594 0 0 0 3.397291-8.257303 12.12644 12.12644 0 0 0-3.397291-8.257304l-46.948668-46.948668a11.654594 11.654594 0 0 0-8.257304-3.397291 11.796148 11.796148 0 0 0-8.257303 3.397291l-46.75993 46.948668a12.032071 12.032071 0 0 0 0 16.703346 11.465856 11.465856 0 0 0 16.514607 0l38.502626-38.691365 30.245323 30.245323-77.335545 77.665837-222.711271-223.371855v-76.580592h76.958069l136.835314 137.40153a11.465856 11.465856 0 0 0 16.514607 0 12.032071 12.032071 0 0 0 0-16.703345l-140.421343-140.987559a11.796148 11.796148 0 0 0-8.162935-3.397291zM501.039491-10.415999H407.566816a17.552668 17.552668 0 0 0-17.458299 17.458299v93.331122a17.175191 17.175191 0 0 0 5.048751 12.220809l234.460235 235.215187a17.222376 17.222376 0 0 0 24.394433 0l94.038891-94.369182a17.222376 17.222376 0 0 0 0-24.394434l-46.75993-46.948668a17.033637 17.033637 0 0 0-12.220809-5.048751 17.505483 17.505483 0 0 0-12.22081 5.048751l-46.75993 46.948668a17.458299 17.458299 0 0 0 0 24.583172 16.75053 16.75053 0 0 0 12.22081 5.048752 17.175191 17.175191 0 0 0 12.220809-5.048752l34.539121-34.727859 22.318311 22.318312-69.455718 69.644457-217.04912-217.756889v-68.512027h69.031057l135.372592 135.750069a16.75053 16.75053 0 0 0 12.22081 5.048752 17.36393 17.36393 0 0 0 12.220809-29.679108l-140.468529-141.034744a17.175191 17.175191 0 0 0-12.220809-5.048751z m140.987559 351.997051a5.426228 5.426228 0 0 1-4.340982-1.887383L403.037095 104.478481a5.945259 5.945259 0 0 1-1.698645-4.340982v-93.283937a6.228366 6.228366 0 0 1 6.181181-6.181182h93.944522a5.426228 5.426228 0 0 1 4.340982 1.887384l140.185421 140.79882a5.992443 5.992443 0 0 1 0 8.634781 6.36992 6.36992 0 0 1-8.63478 0l-138.722699-139.100175h-84.932264v84.460418l228.467791 229.034006 85.215372-85.40411-38.12515-38.313888-42.466132 42.466132a6.36992 6.36992 0 0 1-8.63478 0 5.992443 5.992443 0 0 1 0-8.63478l46.75993-46.948669a6.36992 6.36992 0 0 1 8.63478 0l46.75993 46.948669a6.36992 6.36992 0 0 1 0 8.63478l-94.038891 94.369182a5.520597 5.520597 0 0 1-4.246613 2.028938z"  horiz-adv-x="1088" />

    
    <glyph glyph-name="xiangyoujiantou1" unicode="&#59153;" d="M972.772848 435.136645l51.227152-51.136645-512-512-51.227152 51.227152 460.863355 460.682341 51.136645 51.227152z m0 0l-51.136645-51.136645L460.68234 844.68234 512 896l460.772848-460.863355z"  horiz-adv-x="1024" />

    
    <glyph glyph-name="danganchaxun" unicode="&#59155;" d="M190.899615-117.659096H102.289433A102.15874 102.15874 0 0 0 0-16.153824V794.450727A102.15874 102.15874 0 0 0 102.289433 895.999564H190.376841a102.115175 102.115175 0 0 0 102.245869-101.548837V-16.676597a101.200321 101.200321 0 0 0-101.766659-100.982499zM102.289433 841.718204a48.138767 48.138767 0 0 1-47.572428-47.267477v-810.604551a48.182331 48.182331 0 0 1 47.572428-47.223912h88.610182a47.180348 47.180348 0 0 1 47.00609 46.701139V794.450727A47.920944 47.920944 0 0 1 190.376841 841.718204z m0 0l379.621006-450.674697a27.009987 27.009987 0 0 0-27.358502 27.140681V734.157467a27.358503 27.358503 0 1 0 54.717005 0v-315.973279a27.009987 27.009987 0 0 0-27.358503-27.140681z m335.446609 0A27.009987 27.009987 0 0 0 410.377539 868.858884v-134.701417a27.358503 27.358503 0 1 0 54.717005 0v-315.973279a27.009987 27.009987 0 0 0-27.358502-27.140681zM1009.563598-43.860842a49.271443 49.271443 0 0 0-69.703192-69.703191l-144.416299 144.416299a197.477854 197.477854 0 1 0 69.703191 69.703192l144.4163-144.372736z m-314.056442 392.080451a147.81433 147.81433 0 1 1 147.81433-147.81433 147.81433 147.81433 0 0 1-147.81433 147.901459zM725.305271 447.023883V794.450727a48.182331 48.182331 0 0 0 47.572428 47.223913h88.087408a48.138767 48.138767 0 0 0 47.572428-47.223913v-432.769689h54.717005V794.450727A102.115175 102.115175 0 0 1 860.965107 895.999564h-88.087408a102.115175 102.115175 0 0 1-102.289434-101.548837v-347.470408z m-243.307703-510.401619h-44.39222a48.182331 48.182331 0 0 0-47.572428 47.223912V794.450727a47.920944 47.920944 0 0 0 47.572428 47.223913h88.087408a48.138767 48.138767 0 0 0 47.572428-47.223913v-347.470408h54.76057V794.450727A102.15874 102.15874 0 0 1 525.649192 895.999564h-88.043844a102.115175 102.115175 0 0 1-102.289433-101.548837v-810.604551a102.071611 102.071611 0 0 1 102.289433-101.505272h44.39222z m-335.446608 454.377679a27.009987 27.009987 0 0 0-27.314938 27.184245V734.201031a27.358503 27.358503 0 1 0 54.717005 0v-315.973279a27.009987 27.009987 0 0 0-27.358503-27.184245z m28.186228-254.590906H118.146909a27.14068 27.14068 0 1 0 0 54.28136h56.328892a27.14068 27.14068 0 0 0 0-54.28136z m0-110.740946H118.146909a27.14068 27.14068 0 1 0 0 54.281361h56.328892a27.14068 27.14068 0 0 0 0-54.281361z"  horiz-adv-x="1024" />

    
    <glyph glyph-name="shujukapian" unicode="&#59156;" d="M315.113492 896H157.501893A157.977287 157.977287 0 0 1-0.036569 738.461538v-157.538461a157.977287 157.977287 0 0 1 157.538462-157.538462h157.611599a157.977287 157.977287 0 0 1 157.538461 157.538462V738.461538A157.831012 157.831012 0 0 1 315.113492 896z m551.384615 0H708.886508a157.977287 157.977287 0 0 1-157.538461-157.538462v-157.538461a157.977287 157.977287 0 0 1 157.538461-157.538462h157.538462A157.977287 157.977287 0 0 1 1023.963431 580.923077V738.461538A157.831012 157.831012 0 0 1 866.571245 896zM315.113492 344.615385H157.501893A157.977287 157.977287 0 0 1-0.036569 187.076923v-157.538461a158.050425 158.050425 0 0 1 157.538462-157.6116h157.611599a157.977287 157.977287 0 0 1 157.538461 157.538462V187.076923A157.831012 157.831012 0 0 1 315.259767 344.615385z m551.384615 0H708.886508a157.977287 157.977287 0 0 1-157.538461-157.538462v-157.538461a157.977287 157.977287 0 0 1 157.538461-157.538462h157.538462A157.977287 157.977287 0 0 1 1023.963431 29.538462V187.076923a157.831012 157.831012 0 0 1-157.392186 157.538462z"  horiz-adv-x="1024" />

    
    <glyph glyph-name="shijian1" unicode="&#59157;" d="M950.869333 384A438.869333 438.869333 0 1 1 512-54.869333 438.869333 438.869333 0 0 1 950.869333 384zM1024 384a512 512 0 1 0-512 512 512 512 0 0 0 512-512z m-475.562667 15.786667L684.117333 264.533333a36.693333 36.693333 0 1 0-51.968-51.2L485.888 358.997333a36.437333 36.437333 0 0 0-10.496 25.6V713.472a36.608 36.608 0 0 0 73.045333 0v-313.685333z"  horiz-adv-x="1024" />

    
    <glyph glyph-name="shanchu" unicode="&#59158;" d="M800.109714 13.092571a63.268571 63.268571 0 0 0-62.390857-64H288.109714a63.268571 63.268571 0 0 0-62.390857 64v678.765715h574.390857v-678.838857zM350.500571 806.692571a12.8 12.8 0 0 0 12.873143 13.019429h299.885715a12.8 12.8 0 0 0 12.873142-13.019429v-38.692571H350.500571v38.546286z m636.854858-38.546285h-236.836572v38.546285A88.429714 88.429714 0 0 1 663.405714 896h-299.885714a88.429714 88.429714 0 0 1-87.332571-89.307429v-38.692571H38.546286a38.473143 38.473143 0 0 1 0-76.946286h112.054857v-677.961143A138.971429 138.971429 0 0 1 288.109714-128h449.609143a139.337143 139.337143 0 0 1 137.581714 141.092571v678.765715h111.981715A37.961143 37.961143 0 0 1 1024.950857 730.404571a37.302857 37.302857 0 0 1-37.595428 37.741715zM512.950857 64.658286a37.961143 37.961143 0 0 1 37.595429 38.473143v409.6a41.179429 41.179429 0 0 1-11.410286 27.721142 37.010286 37.010286 0 0 1-52.370286 0 41.179429 41.179429 0 0 1-11.410285-27.721142v-409.6a37.961143 37.961143 0 0 1 37.595428-38.4z m-175.542857 0a37.961143 37.961143 0 0 1 37.595429 38.473143v409.6a41.179429 41.179429 0 0 1-11.410286 27.721142 37.156571 37.156571 0 0 1-52.370286 0 41.179429 41.179429 0 0 1-11.410286-27.794285v-409.6a39.058286 39.058286 0 0 1 37.668572-38.473143z m350.354286 0a35.035429 35.035429 0 0 1 26.185143 10.752 41.179429 41.179429 0 0 1 11.483428 27.721143v409.6a41.179429 41.179429 0 0 1-11.410286 27.794285 37.156571 37.156571 0 0 1-52.370285 0 41.179429 41.179429 0 0 1-11.410286-27.721143v-409.6a37.961143 37.961143 0 0 1 37.595429-38.473142z"  horiz-adv-x="1024" />

    
    <glyph glyph-name="danganjieyue11" unicode="&#59159;" d="M798.438657-127.245556a68.182861 68.182861 0 0 0-40.551355 14.145822l-0.895902 0.895902c-13.202767 10.232144-69.738901 56.30037-69.738901 56.30037a66.013835 66.013835 0 0 1-30.1306 12.212559H305.645383a60.685575 60.685575 0 0 0-49.038849 10.232145c-13.202767 12.165407-184.697278 154.519526-235.33932 198.041503l-1.933262 1.933263-1.933263 1.933262a60.732728 60.732728 0 0 0-2.970622 64.599252l0.895902 0.943055a88.128469 88.128469 0 0 0 53.848428 37.722191 146.786476 146.786476 0 0 0 111.186158-28.291643l0.943055-0.943055c44.323575-32.01671 110.243104-77.236186 132.027669-92.089299h158.150286c-17.918041 1.933262-33.006917 3.772219-43.333367 5.611176a86.949651 86.949651 0 0 0-72.66237 83.601806 69.125915 69.125915 0 0 0 77.094728 75.020008h312.103979a72.615218 72.615218 0 0 0 42.437465-16.927834l1.933262-1.933262 1.933263-1.933262c13.202767-14.145822 170.504304-145.088978 201.625111-169.749861l4.715274-2.782011a43.239062 43.239062 0 0 0 19.804151-31.167961 51.160722 51.160722 0 0 0-15.088877-38.665246l-159.187647-161.073756a75.444382 75.444382 0 0 0-44.512185-17.823735z m-6.601383 60.2612a12.354018 12.354018 0 0 1 6.601383-2.829164l0.895902 0.895902 151.643209 154.519525c-44.276422 33.006917-178.095895 145.088978-203.511221 169.749861a13.24992 13.24992 0 0 1-8.487493 2.829164H430.93021c-19.80415 0-20.700052-1.933262-20.700052-17.918041a28.291643 28.291643 0 0 1 25.556784-28.291643h0.990208c22.633315-4.715274 84.87493-9.430548 132.027669-12.21256a31.828099 31.828099 0 0 0 33.006917-22.633314 34.468652 34.468652 0 0 0-17.918041-39.561148l-66.956889-43.333367H293.38567l-7.497285 4.715274c-0.990208 0.848749-85.676527 59.365298-139.666413 98.077697a94.871311 94.871311 0 0 1-65.730918 20.464288 29.61192 29.61192 0 0 1-16.927833-10.232144c0-0.895902-0.895902-1.933262-0.895902-3.772219 55.593079-47.152739 216.902599-180.925059 228.926547-191.251509h3.064928l3.913678 0.943054h362.604562a113.166573 113.166573 0 0 0 61.298561-24.519424c0.612986 0 55.121552-44.229269 69.314526-55.545926zM698.616309 895.968879H269.856454a25.839701 25.839701 0 0 1-8.298882-0.895902 35.506012 35.506012 0 0 1-28.291644-41.447257v-306.492804a40.221286 40.221286 0 0 1 18.861096-34.845874l227.040438-143.250021a23.010537 23.010537 0 0 1 24.519424 0l218.317182 143.06141a40.221286 40.221286 0 0 1 18.861095 34.845874V854.002942a42.01309 42.01309 0 0 1-42.437465 41.918784z m-17.918041-336.38764l-180.925059-115.901432a23.010537 23.010537 0 0 0-24.519424 0L285.98269 559.581239v271.128249h394.857036zM366.89679 733.857763h232.604462a22.161787 22.161787 0 0 0 23.576369-20.700053v-2.829164a22.161787 22.161787 0 0 0-20.700052-23.57637H366.991096a23.151995 23.151995 0 0 0-2.782012 46.068226 3.394997 3.394997 0 0 1 2.782012 0.895902z m46.162532-93.315271h139.289191a23.104842 23.104842 0 0 0 21.69026-24.472271 21.407343 21.407343 0 0 0-21.124427-21.548802H412.823558a23.151995 23.151995 0 0 0-2.829164 46.068226z"  horiz-adv-x="1024" />

    
    <glyph glyph-name="riqi" unicode="&#59160;" d="M184 817.826484a38.721461 38.721461 0 0 0 7.305936-76.785388l-7.305936-0.584475H105.315068v-154.30137h813.369864V740.383562h-78.684932a38.721461 38.721461 0 0 0-7.305936 76.858447l7.305936 0.584475h117.406393a38.721461 38.721461 0 0 0 38.136986-31.780822l0.584475-7.305936v-868.018265a38.721461 38.721461 0 0 0-31.780822-38.136986l-7.305936-0.584475H66.593607a38.721461 38.721461 0 0 0-38.136986 31.780822l-0.584475 7.305936V779.105023a38.721461 38.721461 0 0 0 31.780822 38.210045l7.305936 0.584475h117.406393zM918.684932 508.785388H105.315068v-559.196347h813.369864V508.712329z m-141.589042-346.22831a33.899543 33.899543 0 0 0 33.826484-33.899544v-9.570776a33.826484 33.826484 0 0 0-33.826484-33.899543H247.050228a33.826484 33.826484 0 0 0-33.826484 33.899543v9.570776A33.899543 33.899543 0 0 0 247.050228 162.557078z m0 210.630137a33.899543 33.899543 0 0 0 33.826484-33.899544v-9.716895a33.826484 33.826484 0 0 0-33.826484-33.826484H247.050228a33.826484 33.826484 0 0 0-33.826484 33.826484V339.287671A33.899543 33.899543 0 0 0 247.050228 373.187215zM682.703196 896.073059a38.721461 38.721461 0 0 0 38.721462-38.721461V702.392694a38.721461 38.721461 0 1 0-77.442923 0V857.278539A38.721461 38.721461 0 0 0 682.630137 896z m-341.333333 0a38.721461 38.721461 0 0 0 38.721461-38.721461V702.392694a38.721461 38.721461 0 0 0-77.442922 0V857.278539a38.721461 38.721461 0 0 0 38.721461 38.721461z m186.374429-77.442922a38.721461 38.721461 0 1 0 0-77.442922h-31.415525a38.721461 38.721461 0 0 0 0 77.442922z"  horiz-adv-x="1024" />

    
    <glyph glyph-name="xiangxiajiantou" unicode="&#59161;" d="M563.136645-76.772848l-51.136645-51.227152L0 384l51.227152 51.227152 460.682341-460.863355 51.227152-51.136645z m0 0l-51.136645 51.136645 460.68234 460.863355 51.31766-51.227152-460.863355-460.772848z"  horiz-adv-x="1024" />

    
    <glyph glyph-name="danganxiugai" unicode="&#59162;" d="M217.959536-127.91155H128.453124A103.192004 103.192004 0 0 0 25.129104-25.379622V793.423627A103.192004 103.192004 0 0 0 128.453124 895.99956H217.431475a103.147999 103.147999 0 0 0 103.280014-102.575933V-25.907684a102.223892 102.223892 0 0 0-102.795958-102.003866zM128.453124 841.169182a48.625657 48.625657 0 0 1-48.05359-47.745555v-818.803249a48.669662 48.669662 0 0 1 48.05359-47.701549h89.506412a47.657544 47.657544 0 0 1 47.481523 47.173487V793.423627A48.405631 48.405631 0 0 1 217.431475 841.169182z m0 0l383.460607-455.232957a27.283174 27.283174 0 0 0-27.635215 27.415189V732.520543a27.635215 27.635215 0 1 0 55.27043 0v-319.169129a27.283174 27.283174 0 0 0-27.635215-27.415189z m338.839416 0A27.283174 27.283174 0 0 0 439.657326 868.584371v-136.063828a27.635215 27.635215 0 1 0 55.270429 0v-319.169129a27.283174 27.283174 0 0 0-27.635215-27.415189zM757.770331 442.482803V793.423627a48.669662 48.669662 0 0 0 48.05359 47.70155h88.978351a48.625657 48.625657 0 0 0 48.05359-47.70155v-437.146852h55.270429V793.423627A103.147999 103.147999 0 0 1 894.802272 895.99956h-88.978351a103.147999 103.147999 0 0 1-103.324019-102.575933v-350.984829z m-245.76859-515.563974h-44.841216a48.669662 48.669662 0 0 0-48.05359 47.701549V793.423627a48.405631 48.405631 0 0 0 48.05359 47.70155h88.978351a48.625657 48.625657 0 0 0 48.05359-47.70155v-350.984829h55.314434V793.423627A103.192004 103.192004 0 0 1 556.094871 895.99956h-88.934346a103.147999 103.147999 0 0 1-103.324019-102.575933v-818.803249a103.103994 103.103994 0 0 1 103.324019-102.531928h44.841216z m-338.839416 458.973391a27.283174 27.283174 0 0 0-27.59121 27.459194V732.564548a27.635215 27.635215 0 1 0 55.27043 0v-319.169128a27.283174 27.283174 0 0 0-27.635215-27.459195z m28.471312-257.165916H144.470987a27.415189 27.415189 0 1 0 0 54.830379h56.898619a27.415189 27.415189 0 0 0 0-54.830379z m0-111.861012H144.470987a27.415189 27.415189 0 1 0 0 54.830378h56.898619a27.415189 27.415189 0 0 0 0-54.830378zM578.229445-52.26675a22.574626 22.574626 0 0 1 4.048471 0.352041l91.090597 17.117991a21.078452 21.078452 0 0 1 10.561228 5.32462l36.436239 34.235982 145.744954 136.85592 45.457288 42.904991a18.57016 18.57016 0 0 1 0 27.459195l-72.828472 68.33995a21.606513 21.606513 0 0 1-29.219399 0l-45.545298-42.993002-145.700949-136.723905-36.436239-34.191977a19.054217 19.054217 0 0 1-5.632655-9.901152l-18.130109-85.589956a18.526155 18.526155 0 0 1 4.400512-16.105874 21.166462 21.166462 0 0 1 15.973858-7.084824z m245.900606 291.401898l43.653078-41.012771-16.325899-15.357786-22.00256 20.506385-22.002559 20.506386z m-45.545299-42.772976l22.00256-20.506385 22.002559-20.506385-116.877596-109.440732-43.653078 41.012771 116.525555 109.440731z m-163.302996-153.225824l17.602047 16.369904 37.404351-35.204095 6.248727-5.852681-17.602047-16.369904-54.566348-10.253193 10.91327 51.309969z m362.206134-132.279388h-399.258445a19.450263 19.450263 0 1 1 0-38.812515h399.258445a19.450263 19.450263 0 1 1 0 38.812515z m-166.339349 92.718786a20.066334 20.066334 0 0 1 20.6384-19.406258h145.700949a19.450263 19.450263 0 1 1 0 38.812515h-145.700949a20.066334 20.066334 0 0 1-20.6384-19.406257z"  horiz-adv-x="1024" />

    
    <glyph glyph-name="sanjiaojiantou" unicode="&#59163;" d="M877.714286-128L0 896h1755.428571z"  horiz-adv-x="1755" />

    
    <glyph glyph-name="yeshu" unicode="&#59164;" d="M732.258937 287.61868H448.886312a32.154589 32.154589 0 0 1-31.659903-32.237037 31.742351 31.742351 0 0 1 31.659903-32.237038h283.372625a32.237037 32.237037 0 0 1 0 64.474075zM793.929791 896h-439.446055a132.41095 132.41095 0 0 1-126.144928-127.793881l-36.689211-1.071819A127.1343 127.1343 0 0 1 70.533977 639.917552v-640.041223a131.916264 131.916264 0 0 1 126.144928-127.793881h472.837359a132.41095 132.41095 0 0 1 126.144928 127.793881h31.659903a132.41095 132.41095 0 0 1 126.144928 127.79388V681.553623zM669.516264-63.525926H196.349114a65.958132 65.958132 0 0 0-62.742673 63.89694V639.835105a62.907568 62.907568 0 0 0 60.0219 62.742673l34.463124 1.071819v-575.567149a131.916264 131.916264 0 0 1 126.144928-127.793881h378.022544a67.277295 67.277295 0 0 0-62.990016-63.814493z m220.547504 191.690821a66.37037 66.37037 0 0 0-62.742673-63.89694H353.98905a65.958132 65.958132 0 0 0-62.742673 63.89694V768.206119A66.37037 66.37037 0 0 0 353.98905 832.10306h376.703382c-0.577134-74.202899 0-25.558776 0-25.558777 0-66.700161 34.463124-127.216747 101.657971-127.216747h57.713365zM732.258937 447.649597H448.886312a32.154589 32.154589 0 0 1-31.659903-32.237037 31.742351 31.742351 0 0 1 31.659903-32.237037h283.372625a32.237037 32.237037 0 0 1 0 64.474074z"  horiz-adv-x="1024" />

    
    <glyph glyph-name="xitongshezhi" unicode="&#59165;" d="M262.561328-127.979833a37.972526 37.972526 0 1 0 0.245936 75.895865h199.011452a37.874152 37.874152 0 1 0 0-75.797491zM37.874152 71.671053a37.972526 37.972526 0 0 0-37.874152 37.775777V858.125356A38.021713 38.021713 0 0 0 38.021713 895.999508h1047.687577a37.874152 37.874152 0 0 0 38.021714-37.775777V583.660724a37.874152 37.874152 0 1 0-75.797491 0V783.065674a36.988782 36.988782 0 0 1-36.890408 36.988782H112.786273a36.988782 36.988782 0 0 1-36.890408-36.988782v-598.608348a36.988782 36.988782 0 0 1 36.890408-36.988782h224.687176a37.874152 37.874152 0 0 0 0-75.797491zM690.735992-105.206155a22.970427 22.970427 0 0 0-23.068801 22.183432l-0.245936 6.787835c-1.918301 49.482333-15.198848 63.008816-22.970427 66.747044a28.331833 28.331833 0 0 1-12.00168 2.311799 137.183129 137.183129 0 0 1-65.074679-26.80703l-4.918721-3.836602a22.773678 22.773678 0 0 0-13.91998-4.574411 23.363925 23.363925 0 0 0-16.822026 7.132146l-84.45444 89.078038a23.117989 23.117989 0 0 0-2.016676 29.512326l3.295544 4.918721c29.512326 41.317257 27.052966 62.516944 22.970427 71.321454-10.476876 22.970427-53.564872 32.020874-67.87835 33.447303l-6.394338 0.639434a23.068802 23.068802 0 0 0-21.052126 23.068802v118.787112a23.167176 23.167176 0 0 0 21.052126 23.068802l6.394338 0.639434c14.313478 1.426429 57.3031 10.476876 67.730788 33.447302 4.082538 8.952072 6.492712 30.004198-22.970427 71.321455l-3.295543 4.918721a23.314738 23.314738 0 0 0 2.065863 29.512326l84.45444 89.078038a23.167176 23.167176 0 0 0 16.822025 7.132145 22.380181 22.380181 0 0 0 13.772419-4.57441l4.918721-3.836603a138.461997 138.461997 0 0 1 65.074679-26.807029 28.331833 28.331833 0 0 1 12.00168 2.311799c7.771579 3.689041 20.904564 17.215524 22.970427 66.747044l0.245936 6.886209a23.167176 23.167176 0 0 0 23.117989 22.183432h133.346526a22.970427 22.970427 0 0 0 23.068802-22.183432l0.245936-6.738647c1.918301-49.482333 15.198848-63.008816 22.970427-66.747045a28.331833 28.331833 0 0 1 12.001679-2.311798 138.461997 138.461997 0 0 1 65.07468 26.659467l4.918721 3.689041a22.478555 22.478555 0 0 0 13.91998 4.574411 23.855797 23.855797 0 0 0 16.822026-7.132146L1067.362461 498.271727a23.117989 23.117989 0 0 0 2.065863-29.512326l-3.295544-4.918721c-29.512326-41.317257-27.052966-62.516944-22.970427-71.321455 9.837442-21.543998 49.875831-31.774938 67.730789-33.447303l6.246775-0.491872a23.068802 23.068802 0 0 0 21.199688-23.068802v-118.639551a23.167176 23.167176 0 0 0-21.052126-23.068801l-6.492712-0.639434c-17.854957-1.672365-57.942534-12.001679-67.730788-33.447303-4.082538-8.952072-6.492712-30.004198 22.970427-71.321455l3.295543-4.918721a23.314738 23.314738 0 0 0-2.065863-29.512326l-84.45444-89.078037a23.117989 23.117989 0 0 0-16.822025-7.132146 23.904984 23.904984 0 0 0-13.919981 4.574411l-4.918721 3.68904a138.461997 138.461997 0 0 1-65.074679 26.659468 28.331833 28.331833 0 0 1-12.001679-2.311799c-7.673205-3.689041-20.904564-17.215524-22.970427-66.747044l-0.245936-6.738648a22.970427 22.970427 0 0 0-23.068802-22.183431z m-58.286844 158.481191a86.126805 86.126805 0 0 0 37.775778-8.165077 105.555753 105.555753 0 0 0 54.105931-84.700376 6.197588 6.197588 0 0 1 6.148401-5.213844h53.859995a6.148401 6.148401 0 0 1 6.099214 5.213844 105.654127 105.654127 0 0 0 54.105932 84.700376 87.995919 87.995919 0 0 0 37.775777 8.165077 165.367401 165.367401 0 0 0 74.371062-21.691559 6.197588 6.197588 0 0 1 7.525643 1.131305l35.955851 38.021714a6.148401 6.148401 0 0 1 0.885369 7.378081 115.393195 115.393195 0 0 0-12.739487 106.539498 125.968445 125.968445 0 0 0 85.093874 62.369382 6.295963 6.295963 0 0 1 4.57441 6.148401v45.399795a6.443525 6.443525 0 0 1-4.57441 6.099214 125.033888 125.033888 0 0 0-85.093874 62.369383 114.999697 114.999697 0 0 0 12.739487 106.539497 6.148401 6.148401 0 0 1-0.885369 7.378082l-35.955851 37.874152a6.197588 6.197588 0 0 1-7.525643 1.131305 162.760478 162.760478 0 0 0-74.272688-21.691559 86.126805 86.126805 0 0 0-37.775777 8.165077 105.555753 105.555753 0 0 0-54.105931 84.700375 6.394337 6.394337 0 0 1-6.148401 5.213845H730.430071a6.148401 6.148401 0 0 1-6.148401-5.213845 105.654127 105.654127 0 0 0-54.105931-84.700375 87.995919 87.995919 0 0 0-37.775778-8.165077 165.416588 165.416588 0 0 0-74.371062 21.691559 6.197588 6.197588 0 0 1-7.525643-1.131305l-35.95585-38.021714a6.197588 6.197588 0 0 1-0.88537-7.378081 115.393195 115.393195 0 0 0 12.739487-106.539498 125.968445 125.968445 0 0 0-85.093873-62.369382 6.295963 6.295963 0 0 1-4.574411-6.148401v-45.399795a6.443525 6.443525 0 0 1 4.574411-6.148402 125.033888 125.033888 0 0 0 85.093873-62.369382 114.901323 114.901323 0 0 0-12.641113-106.539497 6.148401 6.148401 0 0 1 0.88537-7.378082l35.955851-37.874152a6.197588 6.197588 0 0 1 7.525643-1.131306 162.760478 162.760478 0 0 0 74.321874 21.740747z m118.049305 48.596964a171.712551 171.712551 0 1 0 171.761738 171.761738 172.155236 172.155236 0 0 0-171.810925-171.761738z m0 282.97402a111.261469 111.261469 0 1 1 111.261469-111.261469 111.359844 111.359844 0 0 1-111.310656 111.261469z"  horiz-adv-x="1138" />

    
    <glyph glyph-name="zhankai1" unicode="&#59166;" d="M553.225874 732.16h433.261715A38.4 38.4 0 0 1 1024.119589 771.657143a38.4 38.4 0 0 1-36.973715 39.862857H553.225874a38.4 38.4 0 0 1-37.12-39.862857 38.4 38.4 0 0 1 37.12-39.497143z m432.64-142.08h-432.64a39.68 39.68 0 0 1 0-78.08h433.261715a39.68 39.68 0 0 1 0 79.36zM329.262446 896H110.345874A114.541714 114.541714 0 0 1 0.119589 777.618286v-233.618286a114.541714 114.541714 0 0 1 110.08-117.76H329.262446a114.541714 114.541714 0 0 1 110.08 117.76V777.618286A114.541714 114.541714 0 0 1 329.262446 896z m40.96-352A42.24 42.24 0 0 0 329.262446 500.48H110.345874a42.24 42.24 0 0 0-40.96 43.52V777.618286a42.24 42.24 0 0 0 40.96 43.52H329.262446a42.24 42.24 0 0 0 40.96-43.52zM985.865874 256h-432.64a39.68 39.68 0 0 1 0-79.36h433.261715a39.68 39.68 0 0 1 0 79.36z m0-221.44h-432.64a39.68 39.68 0 1 1 0-79.36h433.261715a39.68 39.68 0 0 1 0 79.36zM329.262446 343.04H110.345874A114.541714 114.541714 0 0 1 0.119589 225.28v-233.581714A114.541714 114.541714 0 0 1 110.345874-128H329.262446a114.541714 114.541714 0 0 1 110.08 117.76v235.52A114.541714 114.541714 0 0 1 329.262446 343.04z m40.96-351.378286A42.24 42.24 0 0 0 329.262446-51.858286H110.345874a42.24 42.24 0 0 0-40.96 43.52V225.28a42.24 42.24 0 0 0 40.96 43.52H329.262446a42.24 42.24 0 0 0 40.96-43.52z m0 0"  horiz-adv-x="1026" />

    
    <glyph glyph-name="shujuliebiao" unicode="&#59167;" d="M1087.769238 767.91892h-767.837109a63.986426 63.986426 0 0 0 0 127.972852h767.837109a64.13268 64.13268 0 0 0 63.986425-63.986426 60.476313 60.476313 0 0 0-63.986425-63.986426z m0-447.90498h-767.837109a63.986426 63.986426 0 0 0 0 127.972851h767.837109A64.13268 64.13268 0 0 0 1151.755663 384.000366a60.476313 60.476313 0 0 0-63.986425-63.986426z m0-447.90498h-767.837109a63.986426 63.986426 0 0 0 0 127.972851h767.837109a64.13268 64.13268 0 0 0 63.986425-63.986426 60.476313 60.476313 0 0 0-63.986425-63.986425zM127.972851 831.905346A63.986426 63.986426 0 1 0 63.986426 895.891772a60.476313 60.476313 0 0 0 63.986425-63.986426zM127.972851 384.000366a63.986426 63.986426 0 1 0-63.986425 63.986425A60.476313 60.476313 0 0 0 127.972851 384.000366z m0-447.904981a63.986426 63.986426 0 1 0-63.986425 63.986426 60.476313 60.476313 0 0 0 63.986425-63.986426z"  horiz-adv-x="1152" />

    
    <glyph glyph-name="shuliebiao" unicode="&#59168;" d="M1120.400749 770.561106H689.398014a47.979272 47.979272 0 1 0 0 95.811141h431.002735a47.979272 47.979272 0 1 0 0-95.811141z m0-239.15935H689.398014a47.979272 47.979272 0 1 0 0 95.811142h431.002735a47.979272 47.979272 0 1 0 0-95.811142z m0-383.244566H689.398014a47.979272 47.979272 0 1 0 0 95.811142h431.002735a47.979272 47.979272 0 1 0 0-95.811142z m0-239.896358H689.398014a47.979272 47.979272 0 1 0 0 95.811142h431.002735a47.979272 47.979272 0 0 0 0-95.811142z m-766.489132 515.169138h-235.84281a118.437311 118.437311 0 0 0-117.921405 117.921405v235.84281a118.437311 118.437311 0 0 0 117.921405 117.921404h235.84281a118.437311 118.437311 0 0 0 117.921404-117.921404v-235.84281a118.437311 118.437311 0 0 0-117.5529-117.700303z m-235.84281 393.415287a39.356269 39.356269 0 0 1-39.135167-39.135166v-235.84281a39.356269 39.356269 0 0 1 39.135167-39.135166h235.84281a39.356269 39.356269 0 0 1 39.135166 39.135166v235.84281a39.356269 39.356269 0 0 1-39.135166 39.135166z m235.84281-944.771556h-235.84281a118.437311 118.437311 0 0 0-117.921405 117.921405v235.84281a118.437311 118.437311 0 0 0 117.921405 117.921405h235.84281a118.437311 118.437311 0 0 0 117.921404-117.921405v-235.84281a118.437311 118.437311 0 0 0-117.5529-117.700302z m-235.84281 393.415287a39.356269 39.356269 0 0 1-39.135167-39.135166v-235.84281a39.356269 39.356269 0 0 1 39.135167-39.135166h235.84281a39.356269 39.356269 0 0 1 39.135166 39.135166v235.84281a39.356269 39.356269 0 0 1-39.135166 39.135166z"  horiz-adv-x="1168" />

    
    <glyph glyph-name="shiwudangan" unicode="&#59169;" d="M0 93.391597h774.910924v-221.391597H0zM665.115966 563.89916l109.768068-470.588236H0l109.768067 470.588236zM608.860504-17.290756a55.341176 55.341176 0 1 1 55.341177 55.341176 55.341176 55.341176 0 0 1-55.341177-55.341176zM442.810084-17.290756a55.341176 55.341176 0 1 1 55.341177 55.341176 55.341176 55.341176 0 0 1-55.341177-55.341176zM332.10084 425.519328h774.910925v-221.391597H332.10084zM997.216807 896l109.794958-470.588235H332.10084L441.868908 896zM940.961345 314.810084a55.341176 55.341176 0 1 1 55.341176 55.341177 55.341176 55.341176 0 0 1-55.341176-55.341177zM774.910924 314.810084a55.341176 55.341176 0 1 1 55.341177 55.341177 55.341176 55.341176 0 0 1-55.341177-55.341177z"  horiz-adv-x="1107" />

    
    <glyph glyph-name="jijiandangan" unicode="&#59170;" d="M107.798959 896h592.82991v-862.314434H107.798959zM700.628869 723.526815H970.113394v-689.841249H700.628869zM386.500591 249.257738l152.442712-152.442713 152.442713 152.442713h386.50059v-377.257738H0V249.257738z"  horiz-adv-x="1077" />

    
    <glyph glyph-name="shengxiangdangan" unicode="&#59171;" d="M0-128V896l886.826902-512zM354.720008-128V896l886.826902-512zM886.826902 384L354.720008 76.778495V691.194624zM886.826902 384L354.720008 76.778495V691.194624z"  horiz-adv-x="1241" />

    
    <glyph glyph-name="wenshudangan" unicode="&#59172;" d="M273.88128 612.831091h740.831091v-740.831091H273.88128zM9.287629 896h740.831091v-740.831091H9.287629zM1014.712371 612.831091h-264.619594v-457.662182z"  horiz-adv-x="1024" />

    
    <glyph glyph-name="wushujuhuogui" unicode="&#59173;" d="M81.570886 95.881178l415.866536-223.881178 415.866537 223.881178-415.866537 223.881177zM1.755033 319.800508l519.718712-271.839364 519.680559 271.839364-519.680559 271.839364zM0.114459 319.762355v-44.791497l519.718712-270.236942V47.922991zM1039.322965 319.762355v-44.791497L519.642406 4.733916V47.922991zM257.455724 375.73265l259.058145-135.938759 260.660566 135.938759-260.660566 135.938758zM652.414475 892.246518l-171.115727-81.570885V853.712096a12.743066 12.743066 0 0 1-19.076446 12.781219l-169.513305-80.121075a38.381811 38.381811 0 0 1-19.076447-31.972125v-383.436577a25.371674 25.371674 0 0 1 38.381811-25.600591l340.590878 161.501197A72.872026 72.872026 0 0 1 690.796285 567.565397V866.68408A25.371674 25.371674 0 0 1 652.414475 892.246518zM756.381109 845.890753a17.397719 17.397719 0 0 1-8.012108 1.602422 41.701112 41.701112 0 0 1-17.588484-4.807265c-9.576376-4.807265-71.956357-33.574546-188.70421-89.54484a13.506124 13.506124 0 0 0-11.178797 0q-4.807265 2.403632-81.570886 47.958186c121.516965 52.765451 186.949177 81.570886 198.395045 87.942419a35.596649 35.596649 0 0 0 27.16486 4.807265l81.570885-47.958187zM633.338028 709.951994l-300.644799-142.310291c-6.409686-3.204843-11.178798 0-11.178798 8.012107a22.204984 22.204984 0 0 0 11.178798 19.076447l25.600591 11.178798 33.574547 83.135154c6.409686 15.986062 20.793327 27.203013 31.972124 23.99817l116.747853-20.793327 94.352105 44.791497c6.409686 3.204843 11.178798 0 11.178798-8.012108a27.851612 27.851612 0 0 0-12.781219-19.076447zM732.382939 844.288332l-171.115726-81.570886V805.906521a12.743066 12.743066 0 0 1-19.076447 12.781219l-169.513305-80.121076a38.381811 38.381811 0 0 1-19.076446-31.972124v-383.627342a25.371674 25.371674 0 0 1 38.38181-25.600591l340.590878 161.501197a72.872026 72.872026 0 0 1 38.381811 60.777559V818.68774a25.371674 25.371674 0 0 1-38.381811 25.600592zM362.986626 300.609603q-81.570886 40.785443-86.339997 57.572716c-3.204843 11.178798-4.807265 143.912713-1.602422 398.163594l80.121076-44.791497v-383.7418a88.400254 88.400254 0 0 1 1.602422-14.383641c3.014079-8.012108 4.578347-12.819372 6.218921-12.819372zM273.479939 756.345913a47.767422 47.767422 0 0 0 9.576376 22.395748A1589.602144 1589.602144 0 0 0 465.350839 866.68408a13.544277 13.544277 0 0 0 11.178798 0c3.204843-1.602422 30.522315-17.588484 80.121075-47.958187a17.66479 17.66479 0 0 1-12.781219 0c-108.735746-49.598761-167.87273-76.763621-174.282416-83.135154a41.968183 41.968183 0 0 1-15.986062-25.600592l-80.121076 46.355766z"  horiz-adv-x="1041" />

    
    <glyph glyph-name="huogui" unicode="&#59174;" d="M81.527745 95.814561l415.636806-223.814561 415.636805 223.814561-415.636805 223.814561zM1.711523 319.629122l519.546007-271.770122 519.546006 271.770122-519.546006 271.770122zM0.098742 319.629122v-44.762912l519.546006-270.157341v43.150131zM1039.092013 319.629122v-44.762912L519.546007 4.708869v43.150131zM257.386745 375.582762l258.966613-135.868604 260.579394 135.868604-260.579394 135.868604zM652.221962 892.067776l-171.152311-81.527746V853.558506a12.737682 12.737682 0 0 1-19.188808 12.803509L292.538797 786.414137a38.377614 38.377614 0 0 1-19.188807-31.959402v-383.677403a25.343708 25.343708 0 0 1 38.377614-25.574105l340.494358 161.442709a72.871388 72.871388 0 0 1 38.377614 60.759071V866.362015A25.343708 25.343708 0 0 1 652.221962 892.067776zM756.164077 845.560426a17.378542 17.378542 0 0 1-7.998079 1.612782 41.669005 41.669005 0 0 1-17.576026-4.80543c-9.577947-4.80543-71.949799-33.572184-188.629595-89.525825a13.527615 13.527615 0 0 0-11.190728 0q-4.80543 2.402715-81.527746 47.955561c121.485227 52.66225 187.049728 81.527745 198.240456 87.913043a35.579932 35.579932 0 0 0 27.186887 4.805431l81.527745-47.955562zM633.197724 709.691822l-300.536876-142.286815c-6.385298-3.291391-11.190728 0-11.190728 7.998079a22.183973 22.183973 0 0 0 11.190728 19.188807l25.574105 11.190728 33.572184 83.140527c6.385298 15.996158 20.768675 27.186886 31.959403 23.994237l116.712711-20.768675 94.331255 44.762913c6.385298 3.291391 11.190728 0 11.190728-7.99808a27.845165 27.845165 0 0 0-12.80351-19.221721zM732.136926 843.980559l-171.152312-81.527745V805.602945a12.737682 12.737682 0 0 1-19.188807 12.803509l-169.342046-79.980792a38.377614 38.377614 0 0 1-19.188808-31.959402v-383.644489a25.343708 25.343708 0 0 1 38.377615-25.574105l340.494358 161.409795a72.871388 72.871388 0 0 1 38.377614 60.759071V818.406454a25.343708 25.343708 0 0 1-38.377614 25.574105zM712.948118 661.736261l-300.536875-142.286816c-6.385298-3.291391-11.190728 0-11.190729 7.99808a22.183973 22.183973 0 0 0 11.190729 19.188807l25.574105 11.190728 33.572184 83.140527c6.385298 15.996158 20.768675 27.186886 31.959402 23.994237l116.712711-20.768675 94.331255 44.762913c6.385298 3.291391 11.190728 0 11.190728-7.99808a27.845165 27.845165 0 0 0-12.80351-19.221721zM362.875814 300.440315q-81.527745 40.78033-86.333176 57.566421c-3.291391 11.190728-4.80543 143.866683-1.612781 398.06078l79.914964-44.762912v-383.677403a88.340924 88.340924 0 0 1 1.612781-14.383377c3.291391-7.998079 4.80543-12.803509 6.385298-12.803509zM273.34999 756.034602a47.758078 47.758078 0 0 0 9.577946 22.381456A1589.149211 1589.149211 0 0 0 465.172234 866.329101a13.527615 13.527615 0 0 0 11.190728 0c3.291391-1.612781 30.379535-17.576026 79.914964-47.955561a17.641854 17.641854 0 0 1-12.80351 0c-108.61589-49.568342-167.860921-76.722315-174.246218-83.140527a41.866488 41.866488 0 0 1-15.996158-25.574105L273.317076 756.034602z"  horiz-adv-x="1041" />

    
    <glyph glyph-name="s_ic_danganshi" unicode="&#59400;" d="M72.416 460.812L128 512v-64h768V512l55.584-51.188a32 32 0 0 0 8.416-30.388L838.06-39.75999999999999a32 32 0 0 0-31.044-24.24H216.984a32 32 0 0 0-31.04 24.24L64 430.424a32 32 0 0 0 8.416 30.388zM320 384v-128h384v128h-64v-64H384v64H320zM224 640h576a32 32 0 0 0 32-32v-96H192V608a32 32 0 0 0 32 32z m64 128h448a32 32 0 0 0 32-32v-32H256v32a32 32 0 0 0 32 32z"  horiz-adv-x="1024" />

    
    <glyph glyph-name="danganjieyue" unicode="&#59127;" d="M885.4 458.7H138.6c-41.2 0-74.7 31.9-74.7 74.7v-522.8c0-41.2 33.4-74.7 74.7-74.7h746.8c41.2 0 74.7 33.4 74.7 74.7V533.4c0-49.7-33.5-74.7-74.7-74.7zM742.5-11s-26 27.6-70.7 51c-16.7 8.7-35.9 16.9-57.4 22.7-79 21.7-135.2 43.5-138.7 82.4-2.1 23.9 23.5 28.2 55.5 19.5s61.9-39 72.6-23.9c10.7 15.2-36.3 86.7-81.1 151.8-44.8 65.1-57.1 115.8-42.2 124.5s29.8 11.8 70.2-44.9c23.6-33.1 51.9-73.6 56.1-82.3 4.3-8.7-5.2 59 24.6 61.2 29.9 2.2 44.8-39 44.8-39s-14.9 40.5 12.8 42.7c26.8 2.1 51.2-36.7 51.2-36.7s-6.8 46.4 25.4 34.1c34.1-13 21.5-44.5 53.5-96.5 9.8-15.9 18.9-36.6 27-57.8 18.3-48.1 30.6-98.4 30.6-98.4L742.5-11zM510.9 726.7c-24.7 0-44.8-20.4-44.8-45.7 0-25.2 20-45.6 44.8-45.6 24.7 0 44.8 20.4 44.8 45.6-0.1 25.4-20.1 45.7-44.8 45.7zM885.4 832.2H138.6c-41.3 0-74.7-33.5-74.7-74.7v-149.4c0-41.2 33.4-74.7 74.7-74.7h746.8c41.2 0 74.7 33.4 74.7 74.7V757.4c0 41.3-33.5 74.8-74.7 74.8zM512.2 576.4c-57.2 0-103.5 47.3-103.5 105.6S455 787.5 512.2 787.5s103.5-47.3 103.5-105.6-46.3-105.5-103.5-105.5z"  horiz-adv-x="1024" />

    
    <glyph glyph-name="dangantongji" unicode="&#59129;" d="M371.648 219.648h-20.352v-29.696a37.504 37.504 0 0 0 20.352 29.696zM351.296-75.328v-33.792H129.024V618.24s101.76-35.648 232-55.936a163.84 163.84 0 0 1 162.432-145.408 163.84 163.84 0 0 1 162.432 144.896 1431.04 1431.04 0 0 1 140.544 29.376L394.816 285.376H260.48v-65.728h90.816v-29.696c-0.192-1.408-1.216-2.56-1.216-4.032v-29.888h-89.6v-67.84h89.6v-63.616h-89.6v-67.904h89.6v-25.92c0-2.176 0.896-4.096 1.216-6.08zM430.976 575.04a92.48 92.48 0 1 0 184.96 0.064 92.48 92.48 0 0 0-184.96-0.064zM918.016 877.12v-195.2s-104.448-35.968-237.248-55.488A163.84 163.84 0 0 1 523.456 745.6a163.84 163.84 0 0 1-157.184-118.848 1505.984 1505.984 0 0 0-237.248 55.168V877.12h788.992z m-460.48-982.144h-47.744a36.16 36.16 0 0 0-36.096 36.096V174.08c0 19.968 16.192 36.096 36.096 36.096H457.6c19.968 0 36.096-16.192 36.096-36.096v-243.008a36.16 36.16 0 0 0-36.16-36.096z m211.904 0h-47.744a36.096 36.096 0 0 0-36.096 36.096V327.104c0 19.968 16.192 36.096 36.096 36.096h47.744c19.968 0 36.096-16.192 36.096-36.096v-396.032a36.16 36.16 0 0 0-36.096-36.096z m211.904 0h-47.808a36.096 36.096 0 0 0-36.032 36.096V479.04c0 19.968 16.192 36.096 36.032 36.096h47.808c19.968 0 36.096-16.192 36.096-36.096v-547.968a36.032 36.032 0 0 0-36.096-36.096z"  horiz-adv-x="1024" />

    
    <glyph glyph-name="fenzucopy" unicode="&#59118;" d="M796.444444 444.359111L337.863111-14.222222H56.888889a56.888889 56.888889 0 0 0-56.888889 56.888889V810.666667a56.888889 56.888889 0 0 0 56.888889 56.888889h56.888889V839.111111a56.888889 56.888889 0 0 1 56.888889-56.888889h455.111111a56.888889 56.888889 0 0 1 56.888889 56.888889V867.555556h56.888889a56.888889 56.888889 0 0 0 56.888888-56.888889v-366.307556zM199.111111 896h398.222222a28.444444 28.444444 0 1 0 0-56.888889h-398.222222a28.444444 28.444444 0 0 0 0 56.888889z m0-227.555556a28.444444 28.444444 0 0 1 0-56.888888h398.222222a28.444444 28.444444 0 1 1 0 56.888888h-398.222222z m0-113.777777a28.444444 28.444444 0 0 1 0-56.888889h398.222222a28.444444 28.444444 0 1 1 0 56.888889h-398.222222z m0-113.777778a28.444444 28.444444 0 0 1 0-56.888889h398.222222a28.444444 28.444444 0 1 1 0 56.888889h-398.222222z m0-113.777778a28.444444 28.444444 0 1 1 0-56.888889h227.555556a28.444444 28.444444 0 1 1 0 56.888889h-227.555556zM499.541333 25.372444l340.423111 340.423112 108.999112-108.885334-340.48-340.48-130.56-43.52a17.294222 17.294222 0 0 0-21.902223 21.902222l43.52 130.56z m510.065778 361.528889a48.867556 48.867556 0 0 0 0-69.290666l-33.450667-33.507556-108.885333 108.999111 33.393778 33.450667a48.981333 48.981333 0 0 0 69.290667 0l39.651555-39.651556z"  horiz-adv-x="1024" />

    
    <glyph glyph-name="tongji2x" unicode="&#59116;" d="M53.189298 599.235646h134.946237A53.189298 53.189298 0 0 0 241.324833 546.046348V-128H0V546.046348A53.189298 53.189298 0 0 0 53.189298 599.235646zM333.615276 895.999967h134.881015A53.221909 53.221909 0 0 0 521.783423 842.778058V-128H280.45859V842.778058A53.221909 53.221909 0 0 0 333.615276 895.999967zM618.932974 370.955398h125.032353A58.14624 58.14624 0 0 0 802.242013 312.809158V-128h-241.324833V312.809158A58.14624 58.14624 0 0 0 618.932974 370.955398zM902.620099 612.280231h118.444837a61.439998 61.439998 0 0 0 61.439998-61.439998V-128h-241.324833V550.840233A61.439998 61.439998 0 0 0 902.620099 612.280231z"  horiz-adv-x="1082" />

    
    <glyph glyph-name="guandao1" unicode="&#59115;" d="M182.321388 468.69867h135.494794a30.002254 30.002254 0 0 0 31.27158-31.27158v-99.007437A412.530989 412.530989 0 0 1 760.78792-73.303584H888.528285v-54.719495h182.321388v474.266397h-182.321388v-46.895831h-135.494794a30.002254 30.002254 0 0 0-31.27158 31.27158v99.007437A412.530989 412.530989 0 0 1 310.107911 841.303584H182.321388V896H0v-474.19716h182.321388z m489.821411-138.079603a82.29849 82.29849 0 0 1 83.383187-83.383187h161.550597v-270.966509h-153.726932a360.280911 360.280911 0 0 0-359.565473 359.565472v99.007438a82.29849 82.29849 0 0 1-83.383186 83.383187h-161.550598V791.776786h153.726933a360.280911 360.280911 0 0 0 359.565472-359.565472v-101.54609zM1021.276719-75.842236h-78.167411V296.739599h78.167411zM145.903268 802.208339zM52.111607 846.496281h78.16741v-372.581834H52.111607z m93.791661-343.918143z"  horiz-adv-x="1070" />

    
    <glyph glyph-name="management_Y" unicode="&#59114;" d="M328.60155 795.802552a65.125781 65.125781 0 0 0 46.949954-18.99502 62.05381 62.05381 0 0 0 19.404616-46.386759v-263.933493a66.559368 66.559368 0 0 0-66.559368-66.559367H65.282452a61.900212 61.900212 0 0 0-46.079562 19.507014 64.613786 64.613786 0 0 0-18.99502 46.898755V730.2671740000001A64.818584 64.818584 0 0 0 65.48725 795.648953h263.319098z m0-527.918185a64.869784 64.869784 0 0 0 46.949954-18.995019 62.05381 62.05381 0 0 0 19.404616-46.38676v-264.906283a62.668205 62.668205 0 0 0-19.404616-46.540358 64.460188 64.460188 0 0 0-46.949954-18.99502H65.282452A64.818584 64.818584 0 0 0 0.003072-62.557293999999956v264.906284a64.818584 64.818584 0 0 0 65.27938 65.381779h263.319098z m527.815786 0a64.818584 64.818584 0 0 0 65.22818-65.381779v-264.906283a64.818584 64.818584 0 0 0-65.279379-65.535378h-263.267899a64.408988 64.408988 0 0 0-46.847555 18.99502 62.668205 62.668205 0 0 0-19.507015 46.540358v264.752685a62.05381 62.05381 0 0 0 19.507015 46.386759 64.408988 64.408988 0 0 0 46.796355 18.99502h263.267899z m146.481808 411.797688a67.992954 67.992954 0 0 0 21.0942-49.612329 64.408988 64.408988 0 0 0-21.0942-48.485939l-195.889339-196.606132a67.532158 67.532158 0 0 0-97.995869 0l-195.889339 196.452533a66.559368 66.559368 0 0 0-20.070209 48.537139 69.733738 69.733738 0 0 0 20.01901 49.612329L709.065136 875.878591a69.580139 69.580139 0 0 0 97.944669 0l195.940539-196.196536z"  horiz-adv-x="1024" />

    
    <glyph glyph-name="picture_Y" unicode="&#59112;" d="M1034.322444 213.75744199999997l70.641673-286.826212a47.905786 47.905786 0 0 0-6.029712-37.284641 35.625088 35.625088 0 0 0-26.331587-16.595538h-389.22068z m-966.966668-17.038086l111.687969-23.952893v-300.102641H36.543394a35.071903 35.071903 0 0 0-29.152828 16.982767 48.348333 48.348333 0 0 0-6.638215 34.186807l0.663821 3.097834z m160.423532-51.169575l553.184593-108.147588-183.657285-164.79369h-369.527308v272.941278z m120.594241 255.847874a1038.382799 1038.382799 0 0 1 141.006753-189.57636 79.160715 79.160715 0 0 1 116.66663 0 1035.782832 1035.782832 0 0 1 133.538761 176.687159l7.633948 12.889201h198.593268a37.671871 37.671871 0 0 0 34.629356-28.267732l0.774458-2.821242 27.65923-113.347523-186.865756-179.619037L81.351346 235.221004l33.191076 135.087677a38.722922 38.722922 0 0 0 32.748527 30.978338H348.373549zM553.051848 896a234.10772 234.10772 0 0 0 227.856734-239.47361c0-190.738048-196.325212-374.727243-204.678299-382.361191a33.522986 33.522986 0 0 0-43.922857-1.936146l-2.544649 2.212738-7.689266 7.412674c-38.391011 37.727189-196.657123 203.461293-196.657123 374.727243A234.10772 234.10772 0 0 0 553.051848 896z m6.748852-114.730485a122.198477 122.198477 0 0 1 0-243.899087 122.198477 122.198477 0 0 1 0 243.899087z"  horiz-adv-x="1107" />

    
    <glyph glyph-name="Inquire_Y" unicode="&#58994;" d="M1011.130455-52.37921200000005l-223.694461 223.69446a443.810202 443.810202 0 1 1-62.701121-62.701121l223.694461-223.54739a44.268266 44.268266 0 0 1 62.701121 62.554051zM89.487706 451.729957a354.685388 354.685388 0 1 0 354.685388-354.685388 355.077576 355.077576 0 0 0-354.538317 354.685388z m0 0"  horiz-adv-x="1025" />

    
    <glyph glyph-name="iconmanagement_Y" unicode="&#59111;" d="M328.60155 795.802552a65.125781 65.125781 0 0 0 46.949954-18.99502 62.05381 62.05381 0 0 0 19.404616-46.386759v-263.933493a66.559368 66.559368 0 0 0-66.559368-66.559367H65.282452a61.900212 61.900212 0 0 0-46.079562 19.507014 64.613786 64.613786 0 0 0-18.99502 46.898755V730.2671740000001A64.818584 64.818584 0 0 0 65.48725 795.648953h263.319098z m0-527.918185a64.869784 64.869784 0 0 0 46.949954-18.995019 62.05381 62.05381 0 0 0 19.404616-46.38676v-264.906283a62.668205 62.668205 0 0 0-19.404616-46.540358 64.460188 64.460188 0 0 0-46.949954-18.99502H65.282452A64.818584 64.818584 0 0 0 0.003072-62.557293999999956v264.906284a64.818584 64.818584 0 0 0 65.27938 65.381779h263.319098z m527.815786 0a64.818584 64.818584 0 0 0 65.22818-65.381779v-264.906283a64.818584 64.818584 0 0 0-65.279379-65.535378h-263.267899a64.408988 64.408988 0 0 0-46.847555 18.99502 62.668205 62.668205 0 0 0-19.507015 46.540358v264.752685a62.05381 62.05381 0 0 0 19.507015 46.386759 64.408988 64.408988 0 0 0 46.796355 18.99502h263.267899z m146.481808 411.797688a67.992954 67.992954 0 0 0 21.0942-49.612329 64.408988 64.408988 0 0 0-21.0942-48.485939l-195.889339-196.606132a67.532158 67.532158 0 0 0-97.995869 0l-195.889339 196.452533a66.559368 66.559368 0 0 0-20.070209 48.537139 69.733738 69.733738 0 0 0 20.01901 49.612329L709.065136 875.878591a69.580139 69.580139 0 0 0 97.944669 0l195.940539-196.196536z"  horiz-adv-x="1024" />

    
    <glyph glyph-name="xiangyoujiantou" unicode="&#58993;" d="M389.6 712.5l569.8-329-569.8-329V233.2H65.5V533.6h324.1z"  horiz-adv-x="1024" />

    
    <glyph glyph-name="guanxianbinghaidian" unicode="&#58995;" d="M913.320132 494.679868c0-221.570957-401.320132-622.679868-401.320132-622.679868S110.679868 273.108911 110.679868 494.679868a401.320132 401.320132 0 0 0 802.640264 0zM512 494.679868m-332.039604 0a332.039604 332.039604 0 1 1 664.079208 0 332.039604 332.039604 0 1 1-664.079208 0ZM691.326733 502.072607v142.9967h-112.79208v-75.19472h-43.933993v-59.564356a124.409241 124.409241 0 0 0 156.726073-8.237624z m-331.19472 67.80198h-4.224422a47.524752 47.524752 0 0 1-47.10231-47.10231v-141.095709h112.792079v75.40594h43.933993v112.792079z m218.40264 144.264027h112.79208v-37.59736h-112.79208zM308.805281 350.415842h112.792079v-37.59736H308.805281z m206.996699 219.458745H478.20462v-112.792079h13.729373a119.128713 119.128713 0 0 0 23.867987 36.330033z m92.092409-65.267326a95.894389 95.894389 0 1 1 95.89439-95.89439 95.894389 95.894389 0 0 1-95.89439 95.89439z m63.366337-98.429043a16.89769 16.89769 0 0 0-15.630363-11.828383h-33.372937v-34.006601a14.9967 14.9967 0 0 0-11.828383-15.630363 15.419142 15.419142 0 0 0-19.432343 14.9967v34.640264h-33.79538a15.207921 15.207921 0 0 0-15.841584 11.828383 15.630363 15.630363 0 0 0 15.207921 19.432343h34.429043v34.006601a15.207921 15.207921 0 0 0 11.828383 15.630363 15.630363 15.630363 0 0 0 19.432343-15.207921v-34.429043h34.640264a15.419142 15.419142 0 0 0 14.996699-19.432343z"  horiz-adv-x="1024" />

    
    <glyph glyph-name="jiankong" unicode="&#58996;" d="M913.320132 494.679868c0-221.570957-401.320132-622.679868-401.320132-622.679868S110.679868 273.108911 110.679868 494.679868a401.320132 401.320132 0 0 0 802.640264 0zM512 494.679868m-332.039604 0a332.039604 332.039604 0 1 1 664.079208 0 332.039604 332.039604 0 1 1-664.079208 0ZM385.267327 438.072607v59.775578l-42.244225 8.026402v-190.099009l42.244225 16.264026v65.267327h67.379538l29.782178 48.792079-38.019802 24.50165-16.89769-32.528053z m356.541254 59.775578L437.016502 714.772277H402.165017l-47.313532-81.320132v-27.247525l271.630363-190.099009 22.389439 2.745874z m-386.534654 92.092409v-42.244224l274.587459-187.141915h24.924093l12.462046 13.518152 12.462046 40.554456s-34.851485-27.036304-37.386139-27.036304c-12.462046 10.772277-286.838284 203.405941-286.838283 203.405941z"  horiz-adv-x="1024" />

    
    <glyph glyph-name="bengzhan" unicode="&#58997;" d="M913.320132 494.679868c0-221.570957-401.320132-622.679868-401.320132-622.679868S110.679868 273.108911 110.679868 494.679868a401.320132 401.320132 0 0 0 802.640264 0zM512 494.679868m-332.039604 0a332.039604 332.039604 0 1 1 664.079208 0 332.039604 332.039604 0 1 1-664.079208 0ZM454.125413 488.976898a46.679868 46.679868 0 0 1 93.359736 0 46.679868 46.679868 0 1 1-93.359736 0zM570.930693 729.557756V705.90099h23.234324v-113.214521a138.349835 138.349835 0 0 1-93.359736 35.90759 140.039604 140.039604 0 0 1-83.221123-253.465346l-56.818481-98.429043H640.844884l-56.60726 98.429043a140.250825 140.250825 0 0 1 56.60726 112.369637V705.90099h23.445545V729.557756z m-70.125412-158.838284a81.742574 81.742574 0 1 0-81.742575-81.742574 81.742574 81.742574 0 0 0 81.742575 81.742574z"  horiz-adv-x="1024" />

    
    <glyph glyph-name="guanxiandian" unicode="&#58998;" d="M913.320132 494.679868c0-221.570957-401.320132-622.679868-401.320132-622.679868S110.679868 273.108911 110.679868 494.679868a401.320132 401.320132 0 0 0 802.640264 0zM512 494.679868m-332.039604 0a332.039604 332.039604 0 1 1 664.079208 0 332.039604 332.039604 0 1 1-664.079208 0ZM682.877888 374.283828v134.547855a53.861386 53.861386 0 0 1-53.861386 53.650165h-107.511552v27.036304h-26.825082v-27.036304h-53.861386V642.534653h-107.722772v-134.336633a53.861386 53.861386 0 0 1 53.861386-53.861386h107.511551v-26.825083h26.825082v27.458746H575.366337v-80.686469zM306.270627 683.511551h161.372937v-26.825082H306.270627z m242.059406-322.745874h161.372937v-26.825083h-161.372937z"  horiz-adv-x="1024" />

    
    <glyph glyph-name="chuanganqi" unicode="&#58999;" d="M913.320132 494.679868c0-221.570957-401.320132-622.679868-401.320132-622.679868S110.679868 273.108911 110.679868 494.679868a401.320132 401.320132 0 0 0 802.640264 0zM512 494.679868m-332.039604 0a332.039604 332.039604 0 1 1 664.079208 0 332.039604 332.039604 0 1 1-664.079208 0ZM486.231023 590.9967l17.320132 36.541254a6.970297 6.970297 0 0 0 6.125413 4.013201 6.970297 6.970297 0 0 0 6.125412-4.013201l17.320132-36.541254h138.349835a16.89769 16.89769 0 0 0 16.89769-16.89769v-202.138614a16.89769 16.89769 0 0 0-16.89769-16.89769H347.881188a16.89769 16.89769 0 0 0-16.89769 16.89769v202.138614a16.89769 16.89769 0 0 0 16.89769 16.89769z m-54.072607-155.036304A37.174917 37.174917 0 1 1 394.983498 473.557756a36.963696 36.963696 0 0 1 37.174918-37.59736z m129.689769 74.138614a11.617162 11.617162 0 0 1-11.617162-11.617162v-50.693069a11.828383 11.828383 0 1 1 23.445545 0v50.693069a11.828383 11.828383 0 0 1-11.828383 11.617162z m47.313531 0a11.828383 11.828383 0 0 1-11.828383-11.617162v-50.693069a11.828383 11.828383 0 1 1 23.656766 0v50.693069a11.828383 11.828383 0 0 1-11.828383 11.617162z m-168.976898 137.082508a16.89769 16.89769 0 0 0-16.475247 29.359736 181.650165 181.650165 0 0 0 173.834983 0 16.686469 16.686469 0 0 0 9.716172-13.940594 16.475248 16.475248 0 0 0-7.181518-15.419142 16.686469 16.686469 0 0 0-16.89769-1.267327 147.854785 147.854785 0 0 1-142.785478 1.267327z"  horiz-adv-x="1024" />

    
    <glyph glyph-name="jianchajing" unicode="&#59000;" d="M913.320132 494.679868c0-221.570957-401.320132-622.679868-401.320132-622.679868S110.679868 273.108911 110.679868 494.679868a401.320132 401.320132 0 0 0 802.640264 0zM505.663366 499.749175m-332.039604 0a332.039604 332.039604 0 1 1 664.079208 0 332.039604 332.039604 0 1 1-664.079208 0ZM501.650165 244.382838a255.366337 255.366337 0 0 0 0 510.732674 24.924092 24.924092 0 0 1-23.656766-24.924093v-27.881188a25.135314 25.135314 0 0 1 50.059406 0V730.191419a24.924092 24.924092 0 0 1-24.50165 24.924093h2.112211a255.366337 255.366337 0 0 0 0-510.732674h-2.112211a25.135314 25.135314 0 0 1 24.50165 24.924093v27.881188a25.135314 25.135314 0 0 1-50.059406 0v-27.881188a24.924092 24.924092 0 0 1 23.656766-24.924093z m28.514852 378.29703a122.29703 122.29703 0 0 0 98.217821-98.006601h26.613862a151.656766 151.656766 0 0 1-124.831683 124.620462v-26.613861z m52.382838-122.930693a76.039604 76.039604 0 0 1-75.405941 76.673267h-1.478548a76.673267 76.673267 0 0 1 0-153.346534 75.194719 75.194719 0 0 1 76.884489 74.138613 5.069307 5.069307 0 0 1 0 2.534654z m-76.884489 51.115511a50.693069 50.693069 0 0 0 51.115512-50.059405v-1.056106a51.115512 51.115512 0 1 0-51.115512 51.115511z m-124.409241-26.613861a126.732673 126.732673 0 0 0 97.79538 100.118812v24.712871a152.290429 152.290429 0 0 1-124.620462-124.831683z m97.79538-146.165016a121.663366 121.663366 0 0 0-98.217822 100.118811h-26.613861a151.656766 151.656766 0 0 1 124.831683-124.831683z m151.234323 100.330033a132.435644 132.435644 0 0 0-97.161716-100.118812v-24.712872a151.656766 151.656766 0 0 1 124.409241 124.831684z m16.475248 232.343234a19.221122 19.221122 0 0 1-26.613861-4.858086l-11.828383-18.79868a19.432343 19.432343 0 1 1 32.950495-21.122112l11.828383 18.79868a19.643564 19.643564 0 0 1-6.336634 26.825082zM359.075908 705.90099a19.432343 19.432343 0 0 1-6.125413-26.825082l11.828383-18.79868a19.432343 19.432343 0 0 1 32.950495 21.122112L385.267327 699.986799A19.432343 19.432343 0 0 1 359.075908 705.90099z"  horiz-adv-x="1024" />

    
    </font>
</defs>
</svg>
